<?xml version="1.0" encoding="UTF-8"?>
<svg xmlns="http://www.w3.org/2000/svg" width="944" height="721" viewBox="0 0 944 721" fill="none">
  <path d="M472 -82.3983C716.659 -82.3983 914.94 115.883 914.94 360.542C914.94 605.201 716.659 803.482 472 803.482C227.341 803.482 29.0597 605.201 29.0597 360.542C29.0597 115.883 227.341 -82.3983 472 -82.3983ZM472 -111.458C408.303 -111.458 346.515 -98.9829 288.249 -74.3262C232.037 -50.55 181.55 -16.5003 138.254 26.7957C94.9577 70.0917 60.908 120.579 37.1318 176.791C12.4751 235.057 0 296.845 0 360.542C0 424.239 12.4751 486.027 37.1318 544.293C60.908 600.505 94.9577 650.992 138.254 694.288C181.55 737.584 232.037 771.634 288.249 795.41C346.515 820.067 408.303 832.542 472 832.542C535.697 832.542 597.485 820.067 655.751 795.41C711.963 771.634 762.45 737.584 805.746 694.288C849.042 650.992 883.092 600.505 906.868 544.293C931.525 486.027 944 424.239 944 360.542C944 296.845 931.525 235.057 906.868 176.791C883.092 120.579 849.042 70.0917 805.746 26.7957C762.45 -16.5003 711.963 -50.55 655.751 -74.3262C597.485 -98.9829 535.697 -111.458 472 -111.458Z" fill="white" fill-opacity="0.04"></path>
  <path d="M586.184 94.4549C586.184 157.564 535.109 208.639 472 208.639C408.891 208.639 357.816 157.564 357.816 94.4549C357.816 31.3455 408.891 -19.7292 472 -19.7292C535.109 -19.7292 586.184 31.3455 586.184 94.4549Z" fill="white" fill-opacity="0.04"></path>
  <path d="M106.405 460.196H837.154C837.154 514.5 751.149 741.253 476.843 741.253C202.537 741.253 104.938 512.885 106.405 460.196Z" fill="white" fill-opacity="0.04"></path>
  <path d="M106.405 260.447H837.154C837.154 260.447 860.05 311.816 851.391 400.316H94.9577C94.9577 400.316 86.4453 323.263 106.405 260.447Z" fill="white" fill-opacity="0.04"></path>
</svg>
