<?xml version="1.0" encoding="UTF-8"?>
<svg xmlns="http://www.w3.org/2000/svg" width="152" height="189" viewBox="0 0 152 189" fill="none">
  <g filter="url(#filter0_d_229_4103)">
    <path d="M75.7573 154.1C108.894 154.1 135.757 127.237 135.757 94.1001C135.757 60.963 108.894 34.1001 75.7573 34.1001C42.6203 34.1001 15.7573 60.963 15.7573 94.1001C15.7573 127.237 42.6203 154.1 75.7573 154.1Z" fill="#88CDF2"></path>
    <path d="M75.7573 34.6001C108.618 34.6001 135.257 61.2392 135.257 94.1001C135.257 126.961 108.618 153.6 75.7573 153.6C42.8964 153.6 16.2573 126.961 16.2573 94.1001C16.2573 61.2392 42.8964 34.6001 75.7573 34.6001Z" stroke="#72A4BF"></path>
  </g>
  <path d="M77.0439 56.2148C76.4154 55.2722 75.0239 55.2722 74.4104 56.2148C67.8419 66.1649 51.2334 92.4692 51.2334 103.556C51.2334 109.422 53.3282 114.898 56.8893 119.192C61.2883 124.743 68.0663 128.305 75.6972 128.305C82.5052 128.305 88.6399 125.462 93.009 120.898C97.5277 116.409 100.221 110.23 100.221 103.556C100.221 92.4542 83.6125 66.1649 77.0439 56.2148ZM86.4254 119.342C85.9316 119.731 85.3331 119.911 84.7496 119.911C83.9416 119.911 83.1486 119.551 82.61 118.863C81.6823 117.681 81.8918 115.975 83.0738 115.048C88.7147 110.649 89.0888 104.23 89.1037 103.96C89.1785 102.464 90.4504 101.282 91.9317 101.372C93.4279 101.432 94.595 102.689 94.5352 104.185C94.5352 104.559 94.1162 113.342 86.4254 119.342Z" fill="white"></path>
  <defs>
    <filter id="filter0_d_229_4103" x="-18.2427" y="0.100098" width="188" height="188" filterUnits="userSpaceOnUse" color-interpolation-filters="sRGB">
      <feFlood flood-opacity="0" result="BackgroundImageFix"></feFlood>
      <feColorMatrix in="SourceAlpha" type="matrix" values="0 0 0 0 0 0 0 0 0 0 0 0 0 0 0 0 0 0 127 0" result="hardAlpha"></feColorMatrix>
      <feOffset></feOffset>
      <feGaussianBlur stdDeviation="17"></feGaussianBlur>
      <feComposite in2="hardAlpha" operator="out"></feComposite>
      <feColorMatrix type="matrix" values="0 0 0 0 0 0 0 0 0 0 0 0 0 0 0 0 0 0 0.1 0"></feColorMatrix>
      <feBlend mode="normal" in2="BackgroundImageFix" result="effect1_dropShadow_229_4103"></feBlend>
      <feBlend mode="normal" in="SourceGraphic" in2="effect1_dropShadow_229_4103" result="shape"></feBlend>
    </filter>
  </defs>
</svg>
