<?xml version="1.0" encoding="UTF-8"?>
<svg xmlns="http://www.w3.org/2000/svg" width="122" height="123" viewBox="0 0 122 123" fill="none">
  <g filter="url(#filter0_i_229_4089)">
    <path d="M61 122.048C94.3294 122.048 121.348 95.0296 121.348 61.7002C121.348 28.3708 94.3294 1.35205 61 1.35205C27.6706 1.35205 0.651855 28.3708 0.651855 61.7002C0.651855 95.0296 27.6706 122.048 61 122.048Z" fill="#FFD173" stroke="#FFAC01" stroke-width="1.16054"></path>
  </g>
  <path d="M53.2346 78.5102C50.9471 75.8013 48.6897 72.2798 48.6897 68.8786C48.6897 61.6097 59.7209 43.6859 60.1874 42.9184C60.4282 42.5271 60.8646 42.2863 61.3161 42.2863C61.7676 42.2863 62.204 42.5271 62.4448 42.9184C62.9114 43.6708 73.9426 61.5947 73.9426 68.8786C73.9426 72.2798 71.6852 75.8164 69.3977 78.5102C76.9525 75.2897 81.9188 67.8853 81.9188 59.563C81.9188 50.2324 67.9379 28.1097 62.4298 19.7423C61.903 18.9446 60.7442 18.9446 60.2175 19.7423C54.6944 28.1097 40.7285 50.2324 40.7285 59.563C40.7285 67.8853 45.6948 75.2897 53.2496 78.5102H53.2346Z" fill="white"></path>
  <path d="M46.2819 87.374C44.0997 87.374 42.354 89.1348 42.354 91.3019V94.4021C42.354 95.0041 42.8356 95.4706 43.4225 95.4706H79.1799C79.7819 95.4706 80.2484 94.989 80.2484 94.4021V91.3019C80.2484 89.1198 78.4877 87.374 76.3205 87.374H75.6584V89.8722C75.6584 90.4742 75.1768 90.9407 74.5899 90.9407H72.5582C71.9562 90.9407 71.4897 90.4592 71.4897 89.8722V87.374H67.4715V89.8722C67.4715 90.4742 66.9899 90.9407 66.403 90.9407H64.3713C63.7844 90.9407 63.3028 90.4592 63.3028 89.8722V87.374H59.2846V89.8722C59.2846 90.4742 58.803 90.9407 58.2161 90.9407H56.1844C55.5975 90.9407 55.1159 90.4592 55.1159 89.8722V87.374H51.0977V89.8722C51.0977 90.4742 50.6161 90.9407 50.0292 90.9407H47.9975C47.3956 90.9407 46.929 90.4592 46.929 89.8722V87.374H46.2669H46.2819Z" fill="white"></path>
  <defs>
    <filter id="filter0_i_229_4089" x="0.0717773" y="0.771973" width="121.856" height="121.856" filterUnits="userSpaceOnUse" color-interpolation-filters="sRGB">
      <feFlood flood-opacity="0" result="BackgroundImageFix"></feFlood>
      <feBlend mode="normal" in="SourceGraphic" in2="BackgroundImageFix" result="shape"></feBlend>
      <feColorMatrix in="SourceAlpha" type="matrix" values="0 0 0 0 0 0 0 0 0 0 0 0 0 0 0 0 0 0 127 0" result="hardAlpha"></feColorMatrix>
      <feOffset></feOffset>
      <feGaussianBlur stdDeviation="8.12379"></feGaussianBlur>
      <feComposite in2="hardAlpha" operator="arithmetic" k2="-1" k3="1"></feComposite>
      <feColorMatrix type="matrix" values="0 0 0 0 0 0 0 0 0 0 0 0 0 0 0 0 0 0 0.15 0"></feColorMatrix>
      <feBlend mode="normal" in2="shape" result="effect1_innerShadow_229_4089"></feBlend>
    </filter>
  </defs>
</svg>
