<?xml version="1.0" encoding="UTF-8"?>
<svg xmlns="http://www.w3.org/2000/svg" width="24" height="25" viewBox="0 0 24 25" fill="none">
  <g clip-path="url(#clip0_245_4708)">
    <path d="M1.25496 8.78603C1.35937 8.66488 8.4011 1.87333 8.4011 1.87333C9.32926 0.962701 10.5784 0.45379 11.8787 0.456554C13.179 0.459319 14.426 0.973538 15.3502 1.88811C15.3502 1.88811 22.3772 8.66488 22.4806 8.78308L13.9575 17.3072C13.3944 17.844 12.6462 18.1434 11.8683 18.1434C11.0903 18.1434 10.3422 17.844 9.77911 17.3072L1.25496 8.78603ZM15.3502 18.704C14.4236 19.6215 13.1723 20.1362 11.8683 20.1362C10.5643 20.1362 9.31293 19.6215 8.38633 18.704L0.273904 10.5915C0.13231 11.0405 0.0563376 11.5077 0.0483398 11.9784L0.0483398 19.161C0.0499039 20.4667 0.569286 21.7185 1.49256 22.6417C2.41583 23.565 3.66761 24.0844 4.97332 24.086H18.7633C20.069 24.0844 21.3207 23.565 22.244 22.6417C23.1673 21.7185 23.6867 20.4667 23.6882 19.161V11.9784C23.6802 11.5077 23.6043 11.0405 23.4627 10.5915L15.3502 18.704Z" fill="white"></path>
  </g>
  <defs>
    <clipPath id="clip0_245_4708">
      <rect width="23.6399" height="23.6399" fill="white" transform="translate(0.0483398 0.446289)"></rect>
    </clipPath>
  </defs>
</svg>
