<?xml version="1.0" encoding="UTF-8"?>
<svg xmlns="http://www.w3.org/2000/svg" width="25" height="25" viewBox="0 0 25 25" fill="none">
  <g clip-path="url(#clip0_245_4410)">
    <path d="M1.75496 8.78603C1.85937 8.66488 8.9011 1.87333 8.9011 1.87333C9.82926 0.962701 11.0784 0.45379 12.3787 0.456554C13.679 0.459319 14.926 0.973538 15.8502 1.88811C15.8502 1.88811 22.8772 8.66488 22.9806 8.78308L14.4575 17.3072C13.8944 17.844 13.1462 18.1434 12.3683 18.1434C11.5903 18.1434 10.8422 17.844 10.2791 17.3072L1.75496 8.78603ZM15.8502 18.704C14.9236 19.6215 13.6723 20.1362 12.3683 20.1362C11.0643 20.1362 9.81293 19.6215 8.88633 18.704L0.773904 10.5915C0.63231 11.0405 0.556338 11.5077 0.54834 11.9784L0.54834 19.161C0.549904 20.4667 1.06929 21.7185 1.99256 22.6417C2.91583 23.565 4.16761 24.0844 5.47332 24.086H19.2633C20.569 24.0844 21.8207 23.565 22.744 22.6417C23.6673 21.7185 24.1867 20.4667 24.1882 19.161V11.9784C24.1802 11.5077 24.1043 11.0405 23.9627 10.5915L15.8502 18.704Z" fill="#1D71B8"></path>
  </g>
  <defs>
    <clipPath id="clip0_245_4410">
      <rect width="23.6399" height="23.6399" fill="white" transform="translate(0.54834 0.446289)"></rect>
    </clipPath>
  </defs>
</svg>
