<?xml version="1.0" encoding="UTF-8"?>
<svg xmlns="http://www.w3.org/2000/svg" width="18" height="18" viewBox="0 0 18 18" fill="none">
  <g clip-path="url(#clip0_229_3902)">
    <path d="M0.91875 6.35009C0.99825 6.25784 6.36 1.08659 6.36 1.08659C7.06672 0.393214 8.01787 0.00571601 9.00793 0.00782103C9.99799 0.00992606 10.9475 0.401465 11.6512 1.09784C11.6512 1.09784 17.0018 6.25784 17.0805 6.34784L10.5907 12.8383C10.162 13.2471 9.59236 13.4751 9 13.4751C8.40764 13.4751 7.83801 13.2471 7.40925 12.8383L0.91875 6.35009ZM11.6512 13.9018C10.9457 14.6005 9.99292 14.9924 9 14.9924C8.00708 14.9924 7.05429 14.6005 6.34875 13.9018L0.17175 7.72484C0.0639374 8.06673 0.00608971 8.42241 0 8.78084L0 14.2498C0.00119089 15.244 0.396661 16.1972 1.09966 16.9002C1.80267 17.6032 2.7558 17.9987 3.75 17.9998H14.25C15.2442 17.9987 16.1973 17.6032 16.9003 16.9002C17.6033 16.1972 17.9988 15.244 18 14.2498V8.78084C17.9939 8.42241 17.9361 8.06673 17.8283 7.72484L11.6512 13.9018Z" fill="#E1E1E1"></path>
  </g>
  <defs>
    <clipPath id="clip0_229_3902">
      <rect width="18" height="18" fill="white"></rect>
    </clipPath>
  </defs>
</svg>
