<?xml version="1.0" encoding="UTF-8"?>
<svg xmlns="http://www.w3.org/2000/svg" width="24" height="24" viewBox="0 0 24 24" fill="none">
  <mask id="mask0_234_16985" style="mask-type:alpha" maskUnits="userSpaceOnUse" x="-1" y="-1" width="25" height="25">
    <rect x="-0.802734" y="-0.488281" width="24" height="24" fill="#D9D9D9"></rect>
  </mask>
  <g mask="url(#mask0_234_16985)">
    <path d="M10.1973 15.5117V7.36172L7.59727 9.96172L6.19727 8.51172L11.1973 3.51172L16.1973 8.51172L14.7973 9.96172L12.1973 7.36172V15.5117H10.1973ZM5.19727 19.5117C4.64727 19.5117 4.17643 19.3159 3.78477 18.9242C3.3931 18.5326 3.19727 18.0617 3.19727 17.5117V14.5117H5.19727V17.5117H17.1973V14.5117H19.1973V17.5117C19.1973 18.0617 19.0014 18.5326 18.6098 18.9242C18.2181 19.3159 17.7473 19.5117 17.1973 19.5117H5.19727Z" fill="white"></path>
  </g>
</svg>
