<?xml version="1.0" encoding="UTF-8"?>
<svg xmlns="http://www.w3.org/2000/svg" width="225" height="60" viewBox="0 0 225 60" fill="none">
  <path d="M30 1.84701C45.5504 1.84701 58.153 14.4496 58.153 30C58.153 45.5504 45.5504 58.153 30 58.153C14.4496 58.153 1.84701 45.5504 1.84701 30C1.84701 14.4496 14.4496 1.84701 30 1.84701ZM30 0C25.9515 0 22.0243 0.79291 18.3209 2.36007C14.7481 3.87127 11.5392 6.03545 8.78731 8.78731C6.03545 11.5392 3.87127 14.7481 2.36007 18.3209C0.79291 22.0243 0 25.9515 0 30C0 34.0485 0.79291 37.9757 2.36007 41.6791C3.87127 45.2519 6.03545 48.4608 8.78731 51.2127C11.5392 53.9646 14.7481 56.1287 18.3209 57.6399C22.0243 59.2071 25.9515 60 30 60C34.0485 60 37.9757 59.2071 41.6791 57.6399C45.2519 56.1287 48.4608 53.9646 51.2127 51.2127C53.9646 48.4608 56.1287 45.2519 57.6399 41.6791C59.2071 37.9757 60 34.0485 60 30C60 25.9515 59.2071 22.0243 57.6399 18.3209C56.1287 14.7481 53.9646 11.5392 51.2127 8.78731C48.4608 6.03545 45.2519 3.87127 41.6791 2.36007C37.9757 0.79291 34.0485 0 30 0Z" fill="white"></path>
  <path d="M37.2575 13.0877C37.2575 17.0989 34.0112 20.3451 30 20.3451C25.9888 20.3451 22.7425 17.0989 22.7425 13.0877C22.7425 9.07649 25.9888 5.83022 30 5.83022C34.0112 5.83022 37.2575 9.07649 37.2575 13.0877Z" fill="#F4CA00"></path>
  <path d="M6.76306 36.334H53.209C53.209 39.7854 47.7425 54.1978 30.3078 54.1978C12.8731 54.1978 6.66978 39.6828 6.76306 36.334Z" fill="#1D71B8"></path>
  <path d="M6.76306 23.6381H53.209C53.209 23.6381 54.6642 26.903 54.1138 32.528H6.03545C6.03545 32.528 5.4944 27.6306 6.76306 23.6381Z" fill="#009640"></path>
  <path d="M75.4291 21.3899H83.5448L86.3619 29.8881L89.8787 21.3899H97.3414V37.7892H90.5877L90.5784 27.4534L86.4179 37.7799H82.4627L78.8899 27.3974V37.7799H75.4291V21.3899Z" fill="white"></path>
  <path d="M105.177 30.4384L107.537 25.7743L109.366 30.4104L105.177 30.4384ZM112.444 21.3899H106.362L98.6194 37.7892H101.604L103.619 33.4608H110.597L112.276 37.7892H118.619L112.444 21.3899Z" fill="white"></path>
  <path d="M177.369 30.4384L179.729 25.7743L181.558 30.4104L177.369 30.4384ZM184.636 21.3899H178.545L170.812 37.7892H173.806L175.812 33.4608H182.789L184.599 37.7892H190.672L184.627 21.3899H184.636Z" fill="white"></path>
  <path d="M123.815 21.3899H133.666L133.638 24.2817H126.856C126.856 24.2817 126.549 24.375 126.549 24.9813V33.8619C126.549 33.8619 126.446 34.7761 127.155 34.7761C127.864 34.7761 133.909 34.7948 133.909 34.7948V37.7705H123.703C123.703 37.7705 120.55 37.6213 120.55 34.3657V24.6642C120.55 24.6642 120.802 21.3713 123.797 21.3713" fill="white"></path>
  <path d="M147.323 28.4608C147.323 29.4216 146.306 29.375 146.306 29.375H144.478C143.358 29.375 143.237 28.6101 143.237 28.6101V25.4384C143.237 24.5522 144.179 24.4963 144.179 24.4963H146.259C147.174 24.4963 147.323 25.3545 147.323 25.3545V28.4608ZM150.793 21.3899H136.306L136.455 37.7799H143.237L143.209 32.1175H151.175C153.004 32.1175 153.312 30.1399 153.312 30.1399V24.1978C153.312 21.25 150.793 21.3899 150.793 21.3899Z" fill="white"></path>
  <path d="M155.494 21.3993L155.7 37.7799L169.011 37.7892V35.1772L162.705 35.1679L162.631 21.3993H155.494Z" fill="white"></path>
  <path d="M206.791 21.3899V24.4496L198.61 24.4963C198.61 24.4963 198.004 24.5989 197.948 25.4571C197.91 26.0634 197.845 26.931 198.657 26.931H205.765C206.371 26.931 207.593 27.5933 207.593 30.2799V34.9534C207.593 35.4104 206.931 37.7799 205.177 37.7799H193.218V35.2705L200.989 35.2612C200.989 35.2612 201.8 35.1119 201.8 33.9925C201.8 32.8731 201.138 32.6213 200.886 32.6213C200.634 32.6213 194.496 32.6119 194.282 32.6213C194.132 32.6306 192.705 32.5746 192.705 30.2892V24.5522C192.705 24.5522 193.162 21.4086 194.785 21.4086C196.409 21.4086 206.782 21.3899 206.782 21.3899" fill="white"></path>
  <path d="M210.382 21.3899V24.4963L214.347 24.5056L214.328 37.7892H220.494L220.485 24.347H224.897L224.907 21.3899H210.382Z" fill="white"></path>
</svg>
