<?xml version="1.0" encoding="UTF-8"?>
<svg xmlns="http://www.w3.org/2000/svg" width="19" height="19" viewBox="0 0 19 19" fill="none">
  <path d="M9.50016 0C7.40124 0.00230501 5.38894 0.83712 3.90478 2.32128C2.42062 3.80545 1.5858 5.81774 1.5835 7.91667C1.5835 12.0982 8.2335 17.8386 8.98875 18.4799L9.50016 18.9121L10.0116 18.4799C10.7668 17.8386 17.4168 12.0982 17.4168 7.91667C17.4145 5.81774 16.5797 3.80545 15.0955 2.32128C13.6114 0.83712 11.5991 0.00230501 9.50016 0ZM9.50016 11.875C8.71728 11.875 7.95197 11.6428 7.30103 11.2079C6.65009 10.773 6.14274 10.1547 5.84314 9.43145C5.54354 8.70816 5.46515 7.91228 5.61789 7.14443C5.77062 6.37659 6.14762 5.67128 6.7012 5.1177C7.25478 4.56412 7.96009 4.18712 8.72793 4.03439C9.49577 3.88166 10.2917 3.96005 11.015 4.25964C11.7382 4.55924 12.3564 5.06659 12.7914 5.71753C13.2263 6.36848 13.4585 7.13378 13.4585 7.91667C13.4572 8.9661 13.0398 9.97218 12.2977 10.7142C11.5557 11.4563 10.5496 11.8737 9.50016 11.875Z" fill="#E1E1E1"></path>
  <path d="M9.5 10.2915C10.8117 10.2915 11.875 9.22818 11.875 7.9165C11.875 6.60483 10.8117 5.5415 9.5 5.5415C8.18832 5.5415 7.125 6.60483 7.125 7.9165C7.125 9.22818 8.18832 10.2915 9.5 10.2915Z" fill="#E1E1E1"></path>
</svg>
