<?xml version="1.0" encoding="UTF-8"?>
<svg xmlns="http://www.w3.org/2000/svg" width="26" height="26" viewBox="0 0 26 26" fill="none">
  <g clip-path="url(#clip0_245_1841)">
    <path d="M12.6682 0.756348C9.9116 0.759375 7.26879 1.85576 5.3196 3.80495C3.37041 5.75415 2.27402 8.39695 2.271 11.1535C2.271 16.6453 11.0046 24.1843 11.9965 25.0265L12.6682 25.5942L13.3398 25.0265C14.3317 24.1843 23.0653 16.6453 23.0653 11.1535C23.0623 8.39695 21.9659 5.75415 20.0167 3.80495C18.0675 1.85576 15.4247 0.759375 12.6682 0.756348ZM12.6682 16.3521C11.64 16.3521 10.6349 16.0472 9.77999 15.476C8.92509 14.9048 8.25877 14.0929 7.8653 13.1429C7.47183 12.193 7.36888 11.1478 7.56947 10.1393C7.77006 9.1309 8.26518 8.2046 8.99221 7.47756C9.71925 6.75053 10.6455 6.25541 11.654 6.05482C12.6624 5.85424 13.7077 5.95718 14.6576 6.35065C15.6075 6.74412 16.4194 7.41044 16.9906 8.26534C17.5619 9.12024 17.8668 10.1253 17.8668 11.1535C17.8651 12.5318 17.3169 13.8531 16.3423 14.8277C15.3677 15.8022 14.0464 16.3505 12.6682 16.3521Z" fill="#1D71B8"></path>
    <path d="M12.6675 14.2725C14.3902 14.2725 15.7866 12.876 15.7866 11.1533C15.7866 9.43067 14.3902 8.03418 12.6675 8.03418C10.9448 8.03418 9.54834 9.43067 9.54834 11.1533C9.54834 12.876 10.9448 14.2725 12.6675 14.2725Z" fill="#1D71B8"></path>
  </g>
  <defs>
    <clipPath id="clip0_245_1841">
      <rect width="24.9532" height="24.9532" fill="white" transform="translate(0.190918 0.756348)"></rect>
    </clipPath>
  </defs>
</svg>
