<?xml version="1.0" encoding="UTF-8"?>
<svg xmlns="http://www.w3.org/2000/svg" width="26" height="26" viewBox="0 0 26 26" fill="none">
  <g clip-path="url(#clip0_245_1033)">
    <path d="M18.5476 13.8046L25.0614 20.3184L21.7645 23.6154C21.1899 24.1876 20.5073 24.64 19.7564 24.9463C19.0056 25.2525 18.2013 25.4066 17.3904 25.3995C9.85453 25.3995 0.235066 15.78 0.235066 8.24417C0.228471 7.43317 0.38276 6.62892 0.689006 5.87793C0.995253 5.12695 1.44738 4.44415 2.01922 3.86904L5.31616 0.573135L11.83 7.08696L7.54116 11.3758C8.81619 14.4058 11.2234 16.8186 14.2505 18.1007L18.5476 13.8046ZM23.1088 10.8435H25.1883C25.1853 8.08689 24.0889 5.44409 22.1397 3.49489C20.1905 1.5457 17.5477 0.449316 14.7911 0.446289V2.52572C16.9964 2.5282 19.1106 3.40533 20.6699 4.96467C22.2292 6.52401 23.1064 8.63822 23.1088 10.8435ZM18.95 10.8435H21.0294C21.0278 9.18947 20.37 7.60369 19.2004 6.43414C18.0309 5.26459 16.4451 4.60681 14.7911 4.60516V6.68459C15.8941 6.68459 16.9519 7.12276 17.7319 7.9027C18.5118 8.68264 18.95 9.74046 18.95 10.8435Z" fill="white"></path>
  </g>
  <defs>
    <clipPath id="clip0_245_1033">
      <rect width="24.9532" height="24.9532" fill="white" transform="translate(0.234863 0.446289)"></rect>
    </clipPath>
  </defs>
</svg>
