<?xml version="1.0" encoding="UTF-8"?>
<svg xmlns="http://www.w3.org/2000/svg" width="26" height="26" viewBox="0 0 26 26" fill="none">
  <g clip-path="url(#clip0_245_4953)">
    <path d="M19.0476 13.8046L25.5614 20.3184L22.2645 23.6154C21.6899 24.1876 21.0073 24.64 20.2564 24.9463C19.5056 25.2525 18.7013 25.4066 17.8904 25.3995C10.3545 25.3995 0.735066 15.78 0.735066 8.24417C0.728471 7.43317 0.88276 6.62892 1.18901 5.87793C1.49525 5.12695 1.94738 4.44415 2.51922 3.86904L5.81616 0.573135L12.33 7.08696L8.04116 11.3758C9.31619 14.4058 11.7234 16.8186 14.7505 18.1007L19.0476 13.8046ZM23.6088 10.8435H25.6883C25.6853 8.08689 24.5889 5.44409 22.6397 3.49489C20.6905 1.5457 18.0477 0.449316 15.2911 0.446289V2.52572C17.4964 2.5282 19.6106 3.40533 21.1699 4.96467C22.7292 6.52401 23.6064 8.63822 23.6088 10.8435ZM19.45 10.8435H21.5294C21.5278 9.18947 20.87 7.60369 19.7004 6.43414C18.5309 5.26459 16.9451 4.60681 15.2911 4.60516V6.68459C16.3941 6.68459 17.4519 7.12276 18.2319 7.9027C19.0118 8.68264 19.45 9.74046 19.45 10.8435Z" fill="#1D71B8"></path>
  </g>
  <defs>
    <clipPath id="clip0_245_4953">
      <rect width="24.9532" height="24.9532" fill="white" transform="translate(0.734863 0.446289)"></rect>
    </clipPath>
  </defs>
</svg>
