<?xml version="1.0" encoding="UTF-8"?>
<svg xmlns="http://www.w3.org/2000/svg" width="19" height="19" viewBox="0 0 19 19" fill="none">
  <g clip-path="url(#clip0_229_3905)">
    <path d="M13.9438 10.1713L18.9036 15.1311L16.3932 17.6415C15.9557 18.0772 15.436 18.4217 14.8642 18.6549C14.2925 18.8881 13.6801 19.0054 13.0627 19C7.32465 19 0.000154455 11.6755 0.000154455 5.9375C-0.00486733 5.31999 0.112612 4.70761 0.345796 4.13579C0.578979 3.56397 0.923238 3.04407 1.35865 2.60617L3.86903 0.0965833L8.82882 5.05638L5.5632 8.322C6.53403 10.6291 8.36694 12.4663 10.6718 13.4425L13.9438 10.1713ZM17.4168 7.91667H19.0002C18.9979 5.81774 18.163 3.80545 16.6789 2.32128C15.1947 0.83712 13.1824 0.00230501 11.0835 0V1.58333C12.7626 1.58522 14.3724 2.25308 15.5597 3.44041C16.7471 4.62773 17.4149 6.23754 17.4168 7.91667ZM14.2502 7.91667H15.8335C15.8322 6.65727 15.3314 5.44982 14.4409 4.5593C13.5503 3.66877 12.3429 3.16792 11.0835 3.16667V4.75C11.9233 4.75 12.7288 5.08363 13.3227 5.67749C13.9165 6.27136 14.2502 7.07681 14.2502 7.91667Z" fill="#E1E1E1"></path>
  </g>
  <defs>
    <clipPath id="clip0_229_3905">
      <rect width="19" height="19" fill="white"></rect>
    </clipPath>
  </defs>
</svg>
