<?xml version="1.0" encoding="UTF-8"?>
<svg xmlns="http://www.w3.org/2000/svg" width="120" height="121" viewBox="0 0 120 121" fill="none">
  <g clip-path="url(#clip0_229_4159)">
    <path d="M60 1.2002C92.8609 1.2002 119.5 27.8393 119.5 60.7002C119.5 93.5611 92.8609 120.2 60 120.2C27.1391 120.2 0.5 93.5611 0.5 60.7002C0.5 27.8393 27.1391 1.2002 60 1.2002Z" fill="#F28D35" stroke="#D6741E"></path>
    <path d="M61.2122 19.6131C60.9578 19.224 60.3743 19.224 60.1049 19.6131C57.3518 23.7727 50.4092 34.7851 50.4092 39.4235C50.4092 41.8774 51.277 44.1667 52.7733 45.9622C54.6137 48.2814 57.4566 49.7777 60.6436 49.7777C63.4865 49.7777 66.0601 48.5806 67.8855 46.6804C69.7708 44.7951 70.9079 42.2215 70.9079 39.4235C70.9079 34.7702 63.9503 23.7727 61.2122 19.6131ZM65.1324 46.037C64.9229 46.2016 64.6835 46.2764 64.4291 46.2764C64.085 46.2764 63.7558 46.1268 63.5314 45.8425C63.1423 45.3487 63.2321 44.6305 63.7259 44.2415C66.09 42.4011 66.2396 39.7228 66.2546 39.6031C66.2845 38.9747 66.8231 38.4809 67.4366 38.5108C68.065 38.5407 68.5438 39.0644 68.5289 39.6929C68.5289 39.8425 68.3493 43.5233 65.1324 46.037Z" fill="white"></path>
    <path d="M37.0324 53.9375L33.8154 87.2293H89.2219L86.005 53.9375H37.0324Z" fill="white" stroke="#B2B2B2" stroke-width="3" stroke-linecap="round" stroke-linejoin="round"></path>
    <path d="M48.5835 64.6206L48.1196 76.5308" stroke="#B2B2B2" stroke-width="2" stroke-miterlimit="10" stroke-linecap="round"></path>
    <path d="M74.4688 64.6206L74.9326 76.5308" stroke="#B2B2B2" stroke-width="2" stroke-miterlimit="10" stroke-linecap="round"></path>
    <path d="M54.9424 64.6206V76.5308" stroke="#B2B2B2" stroke-width="2" stroke-miterlimit="10" stroke-linecap="round"></path>
    <path d="M61.5259 64.6206V76.5308" stroke="#B2B2B2" stroke-width="2" stroke-miterlimit="10" stroke-linecap="round"></path>
    <path d="M68.1099 64.6206V76.5308" stroke="#B2B2B2" stroke-width="2" stroke-miterlimit="10" stroke-linecap="round"></path>
  </g>
  <defs>
    <clipPath id="clip0_229_4159">
      <rect width="120" height="120" fill="white" transform="translate(0 0.700195)"></rect>
    </clipPath>
  </defs>
</svg>
