<?xml version="1.0" encoding="UTF-8"?>
<svg xmlns="http://www.w3.org/2000/svg" width="121" height="121" viewBox="0 0 121 121" fill="none">
  <path d="M60.8721 1C93.733 1 120.372 27.6391 120.372 60.5C120.372 93.3609 93.733 120 60.8721 120C28.0111 120 1.37207 93.3609 1.37207 60.5C1.37207 27.6391 28.0111 1 60.8721 1Z" fill="#9CD0B8" stroke="#74A18C"></path>
  <path d="M29.9299 34.8244C29.5858 34.3007 28.8077 34.3007 28.4486 34.8244C24.7678 40.3905 15.4761 55.1137 15.4761 61.3381C15.4761 64.6149 16.6431 67.6823 18.6481 70.0912C21.117 73.2035 24.9025 75.1935 29.1818 75.1935C32.9973 75.1935 36.4237 73.5925 38.8776 71.0489C41.4062 68.5351 42.9175 65.0788 42.9175 61.3381C42.9175 55.1286 33.6107 40.4055 29.9449 34.8244H29.9299ZM35.1818 70.1661C34.8975 70.3755 34.5683 70.4952 34.2392 70.4952C33.7903 70.4952 33.3414 70.3007 33.0421 69.9117C32.5185 69.2533 32.6382 68.2957 33.3115 67.772C36.4686 65.3032 36.6781 61.7122 36.6781 61.5626C36.723 60.7247 37.4262 60.0663 38.2641 60.1112C39.102 60.1411 39.7454 60.8444 39.7155 61.6823C39.7155 61.8917 39.4761 66.8144 35.1669 70.1661H35.1818Z" fill="white"></path>
  <path d="M61.1565 42.6799C60.8124 42.1562 60.0343 42.1562 59.6752 42.6799C55.9944 48.246 46.7026 62.9692 46.7026 69.1936C46.7026 72.4704 47.8697 75.5377 49.8747 77.9467C52.3435 81.0589 56.1291 83.049 60.4084 83.049C64.2238 83.049 67.6503 81.448 70.1042 78.9043C72.6328 76.3906 74.144 72.9342 74.144 69.1936C74.144 62.9841 64.8373 48.2609 61.1715 42.6799H61.1565ZM66.4084 78.0215C66.1241 78.231 65.7949 78.3507 65.4657 78.3507C65.0169 78.3507 64.568 78.1562 64.2687 77.7672C63.745 77.1088 63.8648 76.1512 64.5381 75.6275C67.6952 73.1587 67.9047 69.5677 67.9047 69.418C67.9495 68.5801 68.6528 67.9218 69.4907 67.9667C70.3286 67.9966 70.972 68.6998 70.9421 69.5377C70.9421 69.7472 70.7026 74.6699 66.3934 78.0215H66.4084Z" fill="white"></path>
  <path d="M92.3836 33.9714C92.0394 33.4477 91.2614 33.4477 90.9023 33.9714C87.2215 39.5375 77.9297 54.2607 77.9297 60.4851C77.9297 63.7619 79.0968 66.8292 81.1018 69.2382C83.5706 72.3504 87.3561 74.3405 91.6354 74.3405C95.4509 74.3405 98.8773 72.7395 101.331 70.1958C103.86 67.6821 105.371 64.2257 105.371 60.4851C105.371 54.2756 96.0644 39.5524 92.3985 33.9714H92.3836ZM97.6354 69.313C97.3512 69.5225 97.022 69.6422 96.6928 69.6422C96.2439 69.6422 95.7951 69.4477 95.4958 69.0587C94.9721 68.4003 95.0918 67.4427 95.7651 66.919C98.9222 64.4502 99.1317 60.8592 99.1317 60.7095C99.1766 59.8716 99.8798 59.2133 100.718 59.2582C101.556 59.2881 102.199 59.9913 102.169 60.8292C102.169 61.0387 101.93 65.9614 97.6205 69.313H97.6354Z" fill="white"></path>
</svg>
