<?xml version="1.0" encoding="UTF-8"?>
<svg xmlns="http://www.w3.org/2000/svg" width="121" height="121" viewBox="0 0 121 121" fill="none">
  <path d="M60.1279 0.799805C92.9889 0.799805 119.628 27.4389 119.628 60.2998C119.628 93.1607 92.9889 119.8 60.1279 119.8C27.267 119.8 0.62793 93.1607 0.62793 60.2998C0.62793 27.4389 27.267 0.799811 60.1279 0.799805Z" fill="#9BBF89" stroke="#79926C"></path>
  <path d="M85.9537 24.195C73.7742 28.0254 42.5622 38.4843 34.243 47.7461C34.243 47.7461 34.2131 47.791 34.1981 47.806C34.0635 47.9556 33.9288 48.0903 33.8091 48.2399C33.6295 48.4494 33.4949 48.6738 33.3153 48.8982C33.1508 49.1227 32.9712 49.3471 32.8216 49.5716C30.2181 53.1925 28.647 57.3072 28.0784 61.5566C26.9562 67.392 27.046 73.3322 27.824 77.4169C28.7517 82.2648 30.4874 86.0653 31.6395 88.205C31.6395 88.205 39.1807 71.791 48.9662 61.1227C58.7517 50.4394 67.6246 46.175 69.4351 44.9331C71.2306 43.6913 73.8191 42.4643 73.8191 42.4643C73.8191 42.4643 64.8116 49.6613 57.7942 55.9606C49.7593 63.1576 44.7019 73.9456 42.1134 79.6913C40.5273 83.2224 39.3154 87.9955 38.6121 91.1376C43.864 91.8858 51.7493 92.6189 58.3777 91.6464C62.5672 91.0329 67.2655 89.2673 71.3503 85.811C72.7418 84.6738 74.0285 83.402 75.1956 81.9656C76.0635 80.9032 76.8715 79.5267 77.6495 77.9107C78.8764 75.5915 79.9089 72.9731 80.6271 69.9356C80.6271 69.9356 80.6271 69.9207 80.6271 69.9057C84.8315 55.8858 87.2555 35.4469 88.1981 26.0204C88.3178 24.7935 87.1508 23.8359 85.9687 24.21L85.9537 24.195Z" fill="white"></path>
</svg>
