<?xml version="1.0" encoding="UTF-8"?>
<svg xmlns="http://www.w3.org/2000/svg" width="242" height="65" viewBox="0 0 242 65" fill="none">
  <path d="M32.16 2.29982C48.83 2.29982 62.34 15.8098 62.34 32.4798C62.34 49.1498 48.83 62.6598 32.16 62.6598C15.49 62.6598 1.98 49.1498 1.98 32.4798C1.98 15.8098 15.49 2.29982 32.16 2.29982ZM32.16 0.319824C27.82 0.319824 23.61 1.16982 19.64 2.84982C15.81 4.46982 12.37 6.78982 9.42 9.73982C6.47 12.6898 4.15 16.1298 2.53 19.9598C0.85 23.9298 0 28.1398 0 32.4798C0 36.8198 0.85 41.0298 2.53 44.9998C4.15 48.8298 6.47 52.2698 9.42 55.2198C12.37 58.1698 15.81 60.4898 19.64 62.1098C23.61 63.7898 27.82 64.6398 32.16 64.6398C36.5 64.6398 40.71 63.7898 44.68 62.1098C48.51 60.4898 51.95 58.1698 54.9 55.2198C57.85 52.2698 60.17 48.8298 61.79 44.9998C63.47 41.0298 64.32 36.8198 64.32 32.4798C64.32 28.1398 63.47 23.9298 61.79 19.9598C60.17 16.1298 57.85 12.6898 54.9 9.73982C51.95 6.78982 48.51 4.46982 44.68 2.84982C40.71 1.16982 36.5 0.319824 32.16 0.319824Z" fill="white"></path>
  <path d="M39.94 14.3498C39.94 18.6498 36.46 22.1298 32.16 22.1298C27.86 22.1298 24.38 18.6498 24.38 14.3498C24.38 10.0498 27.86 6.56982 32.16 6.56982C36.46 6.56982 39.94 10.0498 39.94 14.3498Z" fill="#F4CA00"></path>
  <path d="M7.25 39.2698H57.04C57.04 42.9698 51.18 58.4198 32.49 58.4198C13.8 58.4198 7.15 42.8598 7.25 39.2698Z" fill="#1D71B8"></path>
  <path d="M7.25 25.6598H57.04C57.04 25.6598 58.6 29.1598 58.01 35.1898H6.47C6.47 35.1898 5.89 29.9398 7.25 25.6598Z" fill="#009640"></path>
  <path d="M80.86 23.2498H89.56L92.58 32.3598L96.35 23.2498H104.35V40.8298H97.11L97.1 29.7498L92.64 40.8198H88.4L84.57 29.6898V40.8198H80.86V23.2498Z" fill="white"></path>
  <path d="M112.75 32.9498L115.28 27.9498L117.24 32.9198L112.75 32.9498ZM120.54 23.2498H114.02L105.72 40.8298H108.92L111.08 36.1898H118.56L120.36 40.8298H127.16L120.54 23.2498Z" fill="white"></path>
  <path d="M190.14 32.9498L192.67 27.9498L194.63 32.9198L190.14 32.9498ZM197.93 23.2498H191.4L183.11 40.8298H186.32L188.47 36.1898H195.95L197.89 40.8298H204.4L197.92 23.2498H197.93Z" fill="white"></path>
  <path d="M132.73 23.2498H143.29L143.26 26.3498H135.99C135.99 26.3498 135.66 26.4498 135.66 27.0998V36.6198C135.66 36.6198 135.55 37.5998 136.31 37.5998C137.07 37.5998 143.55 37.6198 143.55 37.6198V40.8098H132.61C132.61 40.8098 129.23 40.6498 129.23 37.1598V26.7598C129.23 26.7598 129.5 23.2298 132.71 23.2298" fill="white"></path>
  <path d="M157.93 30.8298C157.93 31.8598 156.84 31.8098 156.84 31.8098H154.88C153.68 31.8098 153.55 30.9898 153.55 30.9898V27.5898C153.55 26.6398 154.56 26.5798 154.56 26.5798H156.79C157.77 26.5798 157.93 27.4998 157.93 27.4998V30.8298ZM161.65 23.2498H146.12L146.28 40.8198H153.55L153.52 34.7498H162.06C164.02 34.7498 164.35 32.6298 164.35 32.6298V26.2598C164.35 23.0998 161.65 23.2498 161.65 23.2498Z" fill="white"></path>
  <path d="M166.69 23.2598L166.91 40.8198L181.18 40.8298V38.0298L174.42 38.0198L174.34 23.2598H166.69Z" fill="white"></path>
  <path d="M221.68 23.2498V26.5298L212.91 26.5798C212.91 26.5798 212.26 26.6898 212.2 27.6098C212.16 28.2598 212.09 29.1898 212.96 29.1898H220.58C221.23 29.1898 222.54 29.8998 222.54 32.7798V37.7898C222.54 38.2798 221.83 40.8198 219.95 40.8198H207.13V38.1298L215.46 38.1198C215.46 38.1198 216.33 37.9598 216.33 36.7598C216.33 35.5598 215.62 35.2898 215.35 35.2898C215.08 35.2898 208.5 35.2798 208.27 35.2898C208.11 35.2998 206.58 35.2398 206.58 32.7898V26.6398C206.58 26.6398 207.07 23.2698 208.81 23.2698C210.55 23.2698 221.67 23.2498 221.67 23.2498" fill="white"></path>
  <path d="M225.53 23.2498V26.5798L229.78 26.5898L229.76 40.8298H236.37L236.36 26.4198H241.09L241.1 23.2498H225.53Z" fill="white"></path>
</svg>
