<?xml version="1.0" encoding="UTF-8"?>
<svg xmlns="http://www.w3.org/2000/svg" width="120" height="121" viewBox="0 0 120 121" fill="none">
  <path d="M60 1.3999C92.8609 1.3999 119.5 28.039 119.5 60.8999C119.5 93.7608 92.8609 120.4 60 120.4C27.1391 120.4 0.5 93.7608 0.5 60.8999C0.5 28.039 27.1391 1.39991 60 1.3999Z" fill="#F18C7E" stroke="#BD6B60"></path>
  <path d="M50.9474 63.5484C47.7155 59.3888 45.9799 54.1968 46.0996 49.0497C46.2193 43.8876 48.1794 38.7853 51.5908 34.7454C49.4063 45.8028 55.945 53.0447 64.2193 59.1794C66.8976 61.1694 69.7255 63.4587 72.2093 65.6582C74.6931 67.8577 76.6382 71.9574 76.3689 75.1744C77.6557 71.6282 76.6232 67.6332 74.5734 64.4312C72.5235 61.2292 69.531 58.6706 66.5684 56.1719C63.6207 53.6731 60.6133 51.1295 58.5335 47.9424C55.511 43.319 54.6731 37.4686 56.3041 32.2467C57.4861 28.4462 59.8352 24.7953 63.112 22.3115C61.3614 27.9823 63.112 34.4163 66.0148 39.6532C68.9774 44.9948 73.1968 49.6033 76.9375 54.4961C80.6632 59.3888 83.9998 64.8053 84.7779 70.7903C85.93 79.738 80.334 88.7903 71.7903 92.7853C73.122 88.8053 72.1046 84.6756 69.7255 81.1594C67.3465 77.6432 63.92 74.8751 60.4936 72.2267C57.0821 69.5784 53.5809 66.93 50.9624 63.5634L50.9474 63.5484Z" fill="white"></path>
  <path d="M35.7455 70.9398C35.9101 63.7278 39.3365 56.9946 42.4637 50.7852C40.6682 54.2565 41.6557 58.8051 43.5559 62.2166C45.4562 65.643 48.4786 68.3812 51.5609 70.9248C54.6432 73.4684 57.8751 75.9074 60.3739 78.9747C62.8726 82.042 64.6083 85.8575 64.1594 89.7029C64.1594 89.7178 64.1594 89.7477 64.1594 89.7627C63.7554 93.0395 61.4661 95.1193 57.9649 95.1044C53.3115 95.1044 48.5833 92.83 45.0522 89.9123C39.3065 85.1692 35.5809 78.1517 35.7455 70.9398Z" fill="white"></path>
</svg>
