<?xml version="1.0" encoding="UTF-8"?>
<svg xmlns="http://www.w3.org/2000/svg" width="122" height="122" viewBox="0 0 122 122" fill="none">
  <path d="M61.1646 1.86475C94.0255 1.86477 120.665 28.5038 120.665 61.3647C120.665 94.2257 94.0255 120.865 61.1646 120.865C28.3036 120.865 1.66455 94.2257 1.66455 61.3647C1.66455 28.5038 28.3036 1.86475 61.1646 1.86475Z" fill="#1D71B8" stroke="#1E639D"></path>
  <path d="M87.5924 25.5593C87.15 25.0692 86.6098 24.6773 86.0066 24.4087C85.4035 24.1402 84.7508 24.0009 84.0906 24H38.7127C38.0537 24.0055 37.403 24.148 36.8021 24.4185C36.2011 24.689 35.6629 25.0815 35.2218 25.5711C34.7806 26.0608 34.4461 26.6368 34.2395 27.2626C34.0329 27.8884 33.9588 28.5504 34.0217 29.2064L37.2724 60.3657V60.4054L37.312 60.7093L40.7609 93.7714C40.8811 94.9318 41.4272 96.0064 42.2936 96.7875C43.1601 97.5685 44.2855 98.0005 45.452 98H77.3513C78.5179 98.0005 79.6432 97.5685 80.5097 96.7875C81.3762 96.0064 81.9223 94.9318 82.0424 93.7714L85.3592 61.9779L88.7817 29.2064C88.8488 28.5492 88.7777 27.8851 88.5729 27.257C88.3681 26.6289 88.0341 26.0506 87.5924 25.5593ZM86.152 28.9421L82.9145 60.0089C79.2773 58.484 75.3613 57.7368 71.4181 57.8154C67.7171 57.7337 64.0372 58.3942 60.5956 59.7579C57.4447 61.0273 54.0676 61.6388 50.6717 61.555C46.9514 61.6184 43.2595 60.898 39.8359 59.4407L36.6513 28.9421C36.6217 28.6529 36.6528 28.3607 36.7428 28.0842C36.8327 27.8077 36.9794 27.5531 37.1735 27.3366C37.3676 27.1201 37.6048 26.9466 37.8698 26.8271C38.1349 26.7076 38.422 26.6449 38.7127 26.6429H84.0906C84.3813 26.6449 84.6684 26.7076 84.9335 26.8271C85.1986 26.9465 85.4358 27.1201 85.6299 27.3366C85.8239 27.553 85.9706 27.8077 86.0606 28.0842C86.1505 28.3607 86.1816 28.6529 86.152 28.9421Z" fill="white"></path>
</svg>
