<?xml version="1.0" encoding="UTF-8"?>
<svg xmlns="http://www.w3.org/2000/svg" width="242" height="65" viewBox="0 0 242 65" fill="none">
  <path d="M32.16 1.98C48.83 1.98 62.34 15.49 62.34 32.16C62.34 48.83 48.83 62.34 32.16 62.34C15.49 62.34 1.98 48.83 1.98 32.16C1.98 15.49 15.49 1.98 32.16 1.98ZM32.16 0C27.82 0 23.61 0.85 19.64 2.53C15.81 4.15 12.37 6.47 9.42 9.42C6.47 12.37 4.15 15.81 2.53 19.64C0.85 23.61 0 27.82 0 32.16C0 36.5 0.85 40.71 2.53 44.68C4.15 48.51 6.47 51.95 9.42 54.9C12.37 57.85 15.81 60.17 19.64 61.79C23.61 63.47 27.82 64.32 32.16 64.32C36.5 64.32 40.71 63.47 44.68 61.79C48.51 60.17 51.95 57.85 54.9 54.9C57.85 51.95 60.17 48.51 61.79 44.68C63.47 40.71 64.32 36.5 64.32 32.16C64.32 27.82 63.47 23.61 61.79 19.64C60.17 15.81 57.85 12.37 54.9 9.42C51.95 6.47 48.51 4.15 44.68 2.53C40.71 0.85 36.5 0 32.16 0Z" fill="#3C3C3B"></path>
  <path d="M39.94 14.03C39.94 18.33 36.46 21.81 32.16 21.81C27.86 21.81 24.38 18.33 24.38 14.03C24.38 9.73 27.86 6.25 32.16 6.25C36.46 6.25 39.94 9.73 39.94 14.03Z" fill="#F4CA00"></path>
  <path d="M7.25 38.95H57.04C57.04 42.65 51.18 58.1 32.49 58.1C13.8 58.1 7.15 42.54 7.25 38.95Z" fill="#1D71B8"></path>
  <path d="M7.25 25.34H57.04C57.04 25.34 58.6 28.84 58.01 34.87H6.47C6.47 34.87 5.89 29.62 7.25 25.34Z" fill="#009640"></path>
  <path d="M80.86 22.93H89.56L92.58 32.04L96.35 22.93H104.35V40.51H97.11L97.1 29.43L92.64 40.5H88.4L84.57 29.37V40.5H80.86V22.93Z" fill="#3C3C3B"></path>
  <path d="M112.75 32.63L115.28 27.63L117.24 32.6L112.75 32.63ZM120.54 22.93H114.02L105.72 40.51H108.92L111.08 35.87H118.56L120.36 40.51H127.16L120.54 22.93Z" fill="#3C3C3B"></path>
  <path d="M190.14 32.63L192.67 27.63L194.63 32.6L190.14 32.63ZM197.93 22.93H191.4L183.11 40.51H186.32L188.47 35.87H195.95L197.89 40.51H204.4L197.92 22.93H197.93Z" fill="#3C3C3B"></path>
  <path d="M132.73 22.93H143.29L143.26 26.03H135.99C135.99 26.03 135.66 26.13 135.66 26.78V36.3C135.66 36.3 135.55 37.28 136.31 37.28C137.07 37.28 143.55 37.3 143.55 37.3V40.49H132.61C132.61 40.49 129.23 40.33 129.23 36.84V26.44C129.23 26.44 129.5 22.91 132.71 22.91" fill="#3C3C3B"></path>
  <path d="M157.93 30.51C157.93 31.54 156.84 31.49 156.84 31.49H154.88C153.68 31.49 153.55 30.67 153.55 30.67V27.27C153.55 26.32 154.56 26.26 154.56 26.26H156.79C157.77 26.26 157.93 27.18 157.93 27.18V30.51ZM161.65 22.93H146.12L146.28 40.5H153.55L153.52 34.43H162.06C164.02 34.43 164.35 32.31 164.35 32.31V25.94C164.35 22.78 161.65 22.93 161.65 22.93Z" fill="#3C3C3B"></path>
  <path d="M166.69 22.94L166.91 40.5L181.18 40.51V37.71L174.42 37.7L174.34 22.94H166.69Z" fill="#3C3C3B"></path>
  <path d="M221.68 22.93V26.21L212.91 26.26C212.91 26.26 212.26 26.37 212.2 27.29C212.16 27.94 212.09 28.87 212.96 28.87H220.58C221.23 28.87 222.54 29.58 222.54 32.46V37.47C222.54 37.96 221.83 40.5 219.95 40.5H207.13V37.81L215.46 37.8C215.46 37.8 216.33 37.64 216.33 36.44C216.33 35.24 215.62 34.97 215.35 34.97C215.08 34.97 208.5 34.96 208.27 34.97C208.11 34.98 206.58 34.92 206.58 32.47V26.32C206.58 26.32 207.07 22.95 208.81 22.95C210.55 22.95 221.67 22.93 221.67 22.93" fill="#3C3C3B"></path>
  <path d="M225.53 22.93V26.26L229.78 26.27L229.76 40.51H236.37L236.36 26.1H241.09L241.1 22.93H225.53Z" fill="#3C3C3B"></path>
</svg>
