<?xml version="1.0" encoding="UTF-8"?>
<svg xmlns="http://www.w3.org/2000/svg" width="120" height="121" viewBox="0 0 120 121" fill="none">
  <path d="M60 0.600098C92.8609 0.600118 119.5 27.2392 119.5 60.1001C119.5 92.961 92.8609 119.6 60 119.6C27.1391 119.6 0.5 92.961 0.5 60.1001C0.5 27.2392 27.1391 0.600098 60 0.600098Z" fill="#A3B5C3" stroke="#7E93A3"></path>
  <path d="M90.6281 32.2098H81.6954C80.5283 32.2098 79.5707 33.1524 79.5707 34.3345V70.125H66.673V56.1649C66.673 54.9978 65.7304 54.0402 64.5483 54.0402H57.9647C56.7977 54.0402 55.8401 54.9829 55.8401 56.1649V70.125H45.456V56.1649C45.456 54.9978 44.5134 54.0402 43.3314 54.0402H29.3712C28.2042 54.0402 27.2466 54.9829 27.2466 56.1649V76.514C27.2466 76.6337 27.2615 76.7385 27.2764 76.8582V85.8956C27.2764 87.0627 28.2192 88.0203 29.4012 88.0203H90.5981C91.7652 88.0203 92.7228 87.0776 92.7228 85.8956V34.3195C92.7228 33.1524 91.7802 32.1948 90.5981 32.1948L90.6281 32.2098Z" fill="white"></path>
</svg>
