<?xml version="1.0" encoding="UTF-8"?>
<svg xmlns="http://www.w3.org/2000/svg" width="82" height="24" viewBox="0 0 82 24" fill="none">
  <path d="M16.8768 8.40946H12.6946V4.20409H16.8768V8.40946ZM14.7484 12.1758C13.3451 11.261 10.7067 10.8563 8.5656 10.5077C7.27615 10.2977 5.4375 9.78368 5.14899 9.59918C4.68965 9.30525 4.3328 8.84463 4.31635 8.26186V4.43822C4.31635 4.30843 4.42138 4.20409 4.54919 4.20409H12.6946V1.60326C12.6946 0.641303 12.0569 0 11.1002 0H5.75639C4.88452 0 4.31508 0.572592 4.31508 1.44929V3.96997C4.31508 4.09976 4.21005 4.20409 4.08225 4.20409H1.25405C0.607425 4.20409 0.0822791 4.73215 0.0822791 5.38236V8.90952C0.0822791 9.60808 0.645388 10.173 1.3401 10.173H2.76748C3.6229 10.173 4.31635 10.8703 4.31635 11.7292V12.3209C4.31635 13.279 5.01739 14.0005 5.96518 14.2143C5.96518 14.2143 7.28121 14.4331 8.64533 14.7041C10.2625 15.0261 12.3758 15.446 12.8478 16.016C13.4501 16.7438 13.4033 17.7961 12.8971 18.6232C11.7709 20.4606 9.06291 20.3397 7.41155 20.2532C7.29513 20.2468 7.17745 20.2367 7.0585 20.2214C7.0547 20.2214 7.04964 20.2214 7.04584 20.2201C6.92436 20.2048 6.80288 20.1858 6.68141 20.1629C5.8146 19.9987 4.96677 19.6284 4.68585 19.0991C4.534 18.8128 4.41885 18.4922 4.33786 18.1397H0.00255808C0.00129266 18.1804 -0.00250357 18.2211 0.00255808 18.2631C0.183512 19.9402 1.07942 23.1289 5.8475 23.8071C5.90318 23.8147 5.96139 23.8211 6.01833 23.8287C6.09425 23.8389 6.16765 23.8491 6.24484 23.8567C6.39669 23.8732 6.5498 23.8872 6.70924 23.8987C8.44033 24.0234 8.84779 24.0438 10.5536 23.8987C13.483 23.6506 16.9072 22.1326 17.3805 17.7592C17.5285 16.3863 17.3058 13.8389 14.7484 12.172V12.1758ZM24.2377 23.9254H23.7202V0H24.2377V23.9254Z" fill="#575756"></path>
  <path d="M30.6685 2.23947C30.5116 2.37689 30.4053 2.52958 30.3522 2.695C30.2978 2.86169 30.2712 3.03855 30.2712 3.2256C30.2712 3.41265 30.3522 3.5857 30.5142 3.74475C30.6761 3.90253 30.8887 4.03613 31.1545 4.14429C31.4189 4.25245 31.7214 4.34788 32.0618 4.43186C32.4009 4.51457 32.7476 4.60109 33.0994 4.68762C33.4512 4.77541 33.7979 4.87466 34.137 4.98791C34.4762 5.09988 34.7786 5.24367 35.0443 5.41926C35.6328 5.79463 35.9263 6.30614 35.9263 6.95635C35.9263 7.73126 35.6378 8.32294 35.062 8.73011C34.4863 9.13856 33.6891 9.34215 32.6704 9.34215C31.5189 9.34215 30.6407 9.10039 30.0358 8.61687C29.4968 8.18424 29.1905 7.56712 29.1159 6.76803H30.0852C30.1181 7.33426 30.3914 7.76816 30.9052 8.06718C31.3531 8.32548 31.9441 8.454 32.6818 8.454C34.2231 8.454 34.9925 7.96666 34.9925 6.99198C34.9925 6.6586 34.8533 6.39648 34.5761 6.20435C34.299 6.01348 33.951 5.85443 33.5322 5.72973C33.1133 5.60503 32.6628 5.48797 32.1782 5.37982C31.6935 5.27166 31.2418 5.13169 30.8242 4.96119C30.4053 4.79068 30.0573 4.56546 29.7802 4.2868C29.5031 4.00814 29.3639 3.63023 29.3639 3.15562C29.3639 2.48123 29.6208 1.93154 30.1345 1.50655C30.6483 1.08156 31.4227 0.869067 32.4578 0.869067C33.4929 0.869067 34.3091 1.11083 34.8811 1.59308C35.4037 2.01807 35.6808 2.56394 35.7137 3.22942H34.7571C34.6748 2.54612 34.2357 2.09187 33.4398 1.86792C33.1576 1.78521 32.8083 1.74322 32.3895 1.74322C31.9706 1.74322 31.6189 1.79158 31.3329 1.88701C31.0469 1.98244 30.8254 2.0995 30.6685 2.23692V2.23947ZM38.671 9.2429H37.7384V0.970861H38.671V9.2429ZM49.0588 0.970861V9.2429H48.1274V2.39598L45.0828 6.33159L41.9889 2.39598V9.2429H41.0563V0.970861H42.137L45.0816 4.89375L47.9769 0.970861H49.0588ZM57.7319 3.15816C57.7319 4.06667 57.3637 4.68634 56.6259 5.01972C57.3055 5.24494 57.7686 5.6572 58.0179 6.25652C58.109 6.48937 58.1546 6.7604 58.1546 7.06832C58.1546 8.06845 57.6282 8.73393 56.5766 9.0673C56.2286 9.18437 55.8186 9.24163 55.3466 9.24163H51.4453V0.970861H55.1366C56.0223 0.970861 56.6981 1.21262 57.1625 1.69487C57.5434 2.07787 57.7344 2.56521 57.7344 3.15689L57.7319 3.15816ZM52.3767 4.6698H55.1353C55.8971 4.6698 56.407 4.40768 56.6639 3.88217C56.755 3.69894 56.8006 3.50044 56.8006 3.28795C56.8006 3.07545 56.7715 2.88841 56.7133 2.72554C56.655 2.56267 56.5639 2.41888 56.4399 2.29418C56.1666 2.0028 55.7642 1.85647 55.2353 1.85647H52.3767V4.6698ZM55.4453 8.35602C56.0173 8.35602 56.4564 8.23768 56.7626 7.99974C57.0688 7.7618 57.222 7.42715 57.222 6.99325C57.222 6.55935 57.0726 6.23489 56.774 5.96895C56.4425 5.66866 55.9667 5.51978 55.3453 5.51978H52.3754V8.35602H55.4453ZM60.9752 9.2429H60.0426V0.970861H60.9752V9.2429ZM67.0137 0.871611C68.2399 0.871611 69.2459 1.28388 70.033 2.10841C70.8036 2.90876 71.1883 3.90762 71.1883 5.10752C71.1883 6.30741 70.8036 7.30627 70.033 8.10662C69.2459 8.93116 68.2399 9.34342 67.0137 9.34342C65.7875 9.34342 64.7815 8.93116 63.9944 8.10662C63.2238 7.30754 62.8391 6.30741 62.8391 5.10752C62.8391 3.90762 63.2238 2.90876 63.9944 2.10841C64.7815 1.28388 65.7875 0.871611 67.0137 0.871611ZM67.0137 8.43109C67.9906 8.43109 68.7828 8.11044 69.3876 7.46914C69.9672 6.85328 70.257 6.06565 70.257 5.10752C70.257 4.14938 69.9672 3.36302 69.3876 2.74589C68.7828 2.10459 67.9919 1.78394 67.0137 1.78394C66.0356 1.78394 65.2447 2.10459 64.6398 2.74589C64.0602 3.36302 63.7705 4.14938 63.7705 5.10752C63.7705 6.06565 64.0602 6.85201 64.6398 7.46914C65.2447 8.11044 66.0356 8.43109 67.0137 8.43109ZM73.9975 2.23947C73.8406 2.37689 73.7343 2.52958 73.6812 2.695C73.6268 2.86169 73.6002 3.03855 73.6002 3.2256C73.6002 3.41265 73.6812 3.5857 73.8431 3.74475C74.0051 3.90253 74.2177 4.03613 74.4834 4.14429C74.7479 4.25245 75.0504 4.34788 75.3908 4.43186C75.7299 4.51457 76.0766 4.60109 76.4284 4.68762C76.7802 4.77541 77.1269 4.87466 77.466 4.98791C77.8052 5.09988 78.1076 5.24367 78.3733 5.41926C78.9617 5.79463 79.2553 6.30614 79.2553 6.95635C79.2553 7.73126 78.9668 8.32294 78.391 8.73011C77.8153 9.13856 77.0181 9.34215 75.9994 9.34215C74.8479 9.34215 73.9697 9.10039 73.3648 8.61687C72.8258 8.18424 72.5195 7.56712 72.4449 6.76803H73.4142C73.4471 7.33426 73.7204 7.76816 74.2342 8.06718C74.6821 8.32548 75.2731 8.454 76.0108 8.454C77.5521 8.454 78.3214 7.96666 78.3214 6.99198C78.3214 6.6586 78.1823 6.39648 77.9051 6.20435C77.628 6.01348 77.28 5.85443 76.8612 5.72973C76.4423 5.60503 75.9918 5.48797 75.5072 5.37982C75.0225 5.27166 74.5708 5.13169 74.1532 4.96119C73.7343 4.79068 73.3863 4.56546 73.1092 4.2868C72.8321 4.00814 72.6929 3.63023 72.6929 3.15562C72.6929 2.48123 72.9498 1.93154 73.4635 1.50655C73.9773 1.08156 74.7517 0.869067 75.7868 0.869067C76.8219 0.869067 77.6381 1.11083 78.2101 1.59308C78.7314 2.01807 79.0098 2.56394 79.0427 3.22942H78.0861C78.0038 2.54612 77.5647 2.09187 76.7688 1.86792C76.4866 1.78521 76.1373 1.74322 75.7185 1.74322C75.2996 1.74322 74.9479 1.79158 74.6619 1.88701C74.3759 1.98244 74.1544 2.0995 73.9975 2.23692V2.23947ZM82 9.2429H81.0674V0.970861H82V9.2429ZM30.9583 16.838C30.6698 16.838 30.4104 16.7706 30.1814 16.6344C29.951 16.4983 29.7688 16.3023 29.6334 16.0466C29.498 15.7908 29.431 15.4791 29.431 15.1113C29.431 14.7436 29.5044 14.4319 29.6511 14.1735C29.7979 13.9152 29.9877 13.718 30.2231 13.5819C30.4572 13.4457 30.7141 13.3783 30.9937 13.3783C31.2101 13.3783 31.3949 13.4177 31.548 13.4979C31.7011 13.5768 31.834 13.6684 31.9466 13.7727L31.6897 14.0997C31.5948 14.0094 31.4923 13.9356 31.3822 13.8783C31.2721 13.8211 31.1494 13.7931 31.014 13.7931C30.8065 13.7931 30.623 13.8491 30.4623 13.9598C30.3028 14.0705 30.1763 14.2257 30.0839 14.4255C29.9915 14.6253 29.9447 14.8543 29.9447 15.1126C29.9447 15.3709 29.989 15.605 30.0763 15.8023C30.1649 15.9995 30.2876 16.1522 30.4446 16.2616C30.6027 16.371 30.7875 16.4245 30.9988 16.4245C31.157 16.4245 31.3038 16.3901 31.4379 16.3227C31.5733 16.2552 31.6923 16.1751 31.796 16.0847L32.0124 16.4181C31.8681 16.5492 31.7062 16.6522 31.5252 16.7273C31.3443 16.8024 31.1557 16.8393 30.9571 16.8393L30.9583 16.838ZM33.8726 16.838C33.6068 16.838 33.3588 16.7706 33.1285 16.6344C32.8982 16.4983 32.7134 16.3023 32.5743 16.0466C32.4338 15.7908 32.3642 15.4791 32.3642 15.1113C32.3642 14.7436 32.4338 14.4319 32.5743 14.1735C32.7134 13.9152 32.8982 13.718 33.1285 13.5819C33.3588 13.4457 33.6068 13.3783 33.8726 13.3783C34.1383 13.3783 34.3851 13.4457 34.6128 13.5819C34.8406 13.718 35.0254 13.9152 35.1671 14.1735C35.3088 14.4319 35.3797 14.7449 35.3797 15.1113C35.3797 15.4778 35.3088 15.7895 35.1671 16.0466C35.0254 16.3023 34.8406 16.4983 34.6128 16.6344C34.3851 16.7706 34.1383 16.838 33.8726 16.838ZM33.8726 16.4232C34.0712 16.4232 34.2459 16.3685 34.3964 16.2603C34.547 16.1522 34.6647 15.9982 34.7482 15.801C34.8317 15.6038 34.8735 15.3734 34.8735 15.1113C34.8735 14.8492 34.8317 14.624 34.7482 14.4242C34.6647 14.2244 34.547 14.0692 34.3964 13.9585C34.2459 13.8478 34.0712 13.7918 33.8726 13.7918C33.6739 13.7918 33.5069 13.8478 33.355 13.9585C33.2044 14.0692 33.0867 14.2244 33.0032 14.4242C32.9197 14.624 32.8779 14.853 32.8779 15.1113C32.8779 15.3696 32.9197 15.6038 33.0032 15.801C33.0867 15.9982 33.2032 16.1509 33.355 16.2603C33.5056 16.3698 33.6777 16.4232 33.8726 16.4232ZM36.273 16.7566V13.4597H36.6792L36.7197 13.9496H36.74C36.8842 13.7905 37.0437 13.6557 37.217 13.545C37.3904 13.4343 37.5726 13.3783 37.7612 13.3783C38.0181 13.3783 38.218 13.4355 38.3597 13.5513C38.5014 13.6671 38.6039 13.8224 38.6672 14.017C38.8431 13.8262 39.0203 13.6722 39.1974 13.5551C39.3758 13.4368 39.5619 13.3783 39.7555 13.3783C40.0933 13.3783 40.3439 13.4864 40.5059 13.704C40.6678 13.9216 40.7488 14.241 40.7488 14.6622V16.7566H40.2553V14.7232C40.2553 14.4064 40.2034 14.1748 40.0997 14.0298C39.9959 13.8847 39.8339 13.8122 39.6125 13.8122C39.4821 13.8122 39.3455 13.8567 39.2037 13.9445C39.062 14.0323 38.9114 14.1659 38.7545 14.3428V16.7566H38.261V14.7232C38.261 14.4064 38.2104 14.1748 38.1092 14.0298C38.0079 13.8847 37.846 13.8122 37.6258 13.8122C37.3638 13.8122 37.0753 13.989 36.7602 14.3428V16.7566H36.273ZM42.7975 16.838C42.4597 16.838 42.2091 16.7299 42.0471 16.5123C41.8852 16.2947 41.8042 15.9753 41.8042 15.5541V13.4597H42.2914V15.4931C42.2914 15.8099 42.3432 16.0427 42.447 16.1903C42.5508 16.3379 42.7178 16.4117 42.9468 16.4117C43.1177 16.4117 43.2733 16.3647 43.4138 16.2718C43.5542 16.1789 43.7048 16.03 43.8668 15.8264V13.461H44.3603V16.7578H43.9478L43.9073 16.2349H43.887C43.7339 16.4156 43.5719 16.5619 43.3999 16.6739C43.229 16.7846 43.0278 16.8406 42.7975 16.8406V16.838ZM45.5017 16.7566V13.4597H45.9079L45.9484 13.9496H45.9686C46.1268 13.7867 46.2938 13.6506 46.4723 13.5412C46.6507 13.4317 46.8494 13.3783 47.0708 13.3783C47.4175 13.3783 47.6719 13.4864 47.8313 13.704C47.9908 13.9216 48.0718 14.241 48.0718 14.6622V16.7566H47.5782V14.7232C47.5782 14.4064 47.5276 14.1748 47.4264 14.0298C47.3252 13.8847 47.1594 13.8122 46.9291 13.8122C46.7583 13.8122 46.6026 13.8567 46.4622 13.9445C46.323 14.0323 46.1648 14.1659 45.9889 14.3428V16.7566H45.5017ZM49.4232 12.7522C49.3283 12.7522 49.2486 12.7204 49.1828 12.6568C49.117 12.5932 49.0854 12.5092 49.0854 12.4049C49.0854 12.3005 49.1183 12.2242 49.1828 12.1631C49.2486 12.102 49.3283 12.0715 49.4232 12.0715C49.5181 12.0715 49.6029 12.102 49.6662 12.1631C49.7294 12.2242 49.7611 12.3044 49.7611 12.4049C49.7611 12.5054 49.7294 12.5932 49.6662 12.6568C49.6029 12.7204 49.5219 12.7522 49.4232 12.7522ZM49.1727 16.7566V13.4597H49.6599V16.7566H49.1727ZM52.0806 16.838C51.7921 16.838 51.5327 16.7706 51.3024 16.6344C51.072 16.4983 50.8898 16.3023 50.7544 16.0466C50.619 15.7908 50.552 15.4791 50.552 15.1113C50.552 14.7436 50.6254 14.4319 50.7721 14.1735C50.9189 13.9152 51.1087 13.718 51.3428 13.5819C51.5769 13.4457 51.8338 13.3783 52.1135 13.3783C52.3299 13.3783 52.5146 13.4177 52.6677 13.4979C52.8208 13.5781 52.9537 13.6684 53.0663 13.7727L52.8095 14.0997C52.7146 14.0094 52.6121 13.9356 52.502 13.8783C52.3919 13.8211 52.2691 13.7931 52.1337 13.7931C51.9262 13.7931 51.7427 13.8491 51.5833 13.9598C51.4226 14.0705 51.2973 14.2257 51.2049 14.4255C51.1125 14.6253 51.0657 14.8543 51.0657 15.1126C51.0657 15.3709 51.11 15.605 51.1973 15.8023C51.2846 15.9995 51.4074 16.1522 51.5656 16.2616C51.7237 16.371 51.9085 16.4245 52.1198 16.4245C52.278 16.4245 52.4235 16.3901 52.5589 16.3227C52.6943 16.2552 52.8133 16.1751 52.917 16.0847L53.1334 16.4181C52.9892 16.5492 52.8272 16.6522 52.6462 16.7273C52.4665 16.8024 52.2767 16.8393 52.0781 16.8393L52.0806 16.838ZM54.5545 16.838C54.3735 16.838 54.2115 16.8011 54.0673 16.7299C53.923 16.6573 53.8079 16.5517 53.7231 16.4143C53.637 16.2756 53.594 16.1076 53.594 15.9079C53.594 15.5503 53.7573 15.2742 54.0837 15.0821C54.4102 14.8887 54.9278 14.755 55.6351 14.6774C55.6351 14.5286 55.6161 14.3848 55.5782 14.2486C55.5402 14.1125 55.4694 14.003 55.3681 13.9191C55.2669 13.8351 55.1214 13.7931 54.9316 13.7931C54.7417 13.7931 54.5494 13.8313 54.3811 13.9089C54.2115 13.9865 54.0647 14.0679 53.9382 14.1532L53.7421 13.8135C53.837 13.7498 53.9496 13.6849 54.0799 13.6162C54.2103 13.5475 54.3545 13.4915 54.5127 13.4457C54.6709 13.3999 54.8366 13.3783 55.0125 13.3783C55.2783 13.3783 55.4921 13.4355 55.6554 13.5488C55.8173 13.662 55.9363 13.8185 56.011 14.0183C56.0856 14.2181 56.1223 14.4509 56.1223 14.7181V16.7578H55.7161L55.6756 16.357H55.6554C55.4972 16.4881 55.3264 16.6013 55.1416 16.6968C54.9569 16.7922 54.7607 16.8393 54.5532 16.8393L54.5545 16.838ZM54.6835 16.4372C54.8544 16.4372 55.0138 16.3977 55.1606 16.3176C55.3074 16.2387 55.4656 16.1242 55.6377 15.974V15.0083C55.2504 15.0541 54.9429 15.1164 54.7177 15.1953C54.4925 15.2742 54.3305 15.3709 54.2305 15.4841C54.1318 15.5974 54.0825 15.7285 54.0825 15.8786C54.0825 16.0733 54.1419 16.2158 54.2622 16.3036C54.3811 16.3927 54.5228 16.4359 54.6848 16.4359L54.6835 16.4372ZM56.8259 16.7566V16.4919L58.6038 13.8682H57.022V13.4597H59.2264V13.7244L57.4485 16.3481H59.2871V16.7566H56.8259ZM60.2817 12.7522C60.1868 12.7522 60.1071 12.7204 60.0413 12.6568C59.9755 12.5932 59.9439 12.5092 59.9439 12.4049C59.9439 12.3005 59.9768 12.2242 60.0413 12.1631C60.1071 12.102 60.1868 12.0715 60.2817 12.0715C60.3766 12.0715 60.4614 12.102 60.5247 12.1631C60.5879 12.2242 60.6196 12.3044 60.6196 12.4049C60.6196 12.5054 60.5879 12.5932 60.5247 12.6568C60.4614 12.7204 60.3804 12.7522 60.2817 12.7522ZM60.0312 16.7566V13.4597H60.5184V16.7566H60.0312ZM62.9176 16.838C62.6518 16.838 62.4038 16.7706 62.1735 16.6344C61.9432 16.4983 61.7585 16.3023 61.6193 16.0466C61.4801 15.7908 61.4092 15.4791 61.4092 15.1113C61.4092 14.7436 61.4788 14.4319 61.6193 14.1735C61.7585 13.9152 61.9432 13.718 62.1735 13.5819C62.4038 13.4457 62.6506 13.3783 62.9176 13.3783C63.1846 13.3783 63.4301 13.4457 63.6578 13.5819C63.8856 13.718 64.0704 13.9152 64.2121 14.1735C64.3538 14.4319 64.4247 14.7449 64.4247 15.1113C64.4247 15.4778 64.3538 15.7895 64.2121 16.0466C64.0704 16.3023 63.8856 16.4983 63.6578 16.6344C63.4301 16.7706 63.1833 16.838 62.9176 16.838ZM62.9176 16.4232C63.1162 16.4232 63.2909 16.3685 63.4415 16.2603C63.592 16.1522 63.7097 15.9982 63.7932 15.801C63.8768 15.6038 63.9185 15.3734 63.9185 15.1113C63.9185 14.8492 63.8768 14.624 63.7932 14.4242C63.7097 14.2244 63.592 14.0692 63.4415 13.9585C63.2909 13.8478 63.1162 13.7918 62.9176 13.7918C62.7189 13.7918 62.5519 13.8478 62.4 13.9585C62.2494 14.0692 62.1318 14.2244 62.0482 14.4242C61.9647 14.624 61.923 14.853 61.923 15.1113C61.923 15.3696 61.9647 15.6038 62.0482 15.801C62.1318 15.9982 62.2494 16.1509 62.4 16.2603C62.5506 16.3698 62.724 16.4232 62.9176 16.4232ZM65.3181 16.7566V13.4597H65.7243L65.7648 13.9496H65.785C65.9432 13.7867 66.1102 13.6506 66.2886 13.5412C66.4671 13.4317 66.6657 13.3783 66.8872 13.3783C67.2339 13.3783 67.4883 13.4864 67.6477 13.704C67.8084 13.9216 67.8881 14.241 67.8881 14.6622V16.7566H67.3946V14.7232C67.3946 14.4064 67.344 14.1748 67.2428 14.0298C67.1415 13.8847 66.9758 13.8122 66.7455 13.8122C66.5746 13.8122 66.419 13.8567 66.2785 13.9445C66.1381 14.0323 65.9811 14.1659 65.8052 14.3428V16.7566H65.3181ZM70.2873 16.838C70.0039 16.838 69.7432 16.7693 69.5066 16.6306C69.27 16.4919 69.0814 16.2947 68.9422 16.0389C68.803 15.7832 68.7321 15.474 68.7321 15.1113C68.7321 14.7487 68.8017 14.4446 68.9422 14.1863C69.0814 13.928 69.2636 13.7282 69.4863 13.5882C69.709 13.4483 69.9469 13.377 70.2 13.377C70.4708 13.377 70.7024 13.4406 70.896 13.5679C71.0896 13.6951 71.2377 13.8733 71.3389 14.101C71.4401 14.3301 71.4908 14.6036 71.4908 14.9205C71.4908 14.9752 71.4907 15.0286 71.4869 15.0808C71.4844 15.133 71.4794 15.1788 71.4705 15.2195H69.1181L69.1118 14.8594H71.0517C71.0517 14.5057 70.977 14.2372 70.8289 14.0539C70.6809 13.8707 70.4734 13.7791 70.2064 13.7791C70.0444 13.7791 69.8862 13.8262 69.7331 13.9216C69.58 14.017 69.4534 14.1621 69.3547 14.3568C69.256 14.5515 69.2067 14.8034 69.2067 15.1113C69.2067 15.4193 69.2586 15.6508 69.3623 15.8455C69.4661 16.0402 69.604 16.1878 69.7774 16.287C69.9507 16.3863 70.1418 16.4359 70.3493 16.4359C70.5164 16.4359 70.6657 16.4105 70.7986 16.3608C70.9314 16.3112 71.0592 16.2476 71.1807 16.17L71.3629 16.4957C71.2225 16.5861 71.0668 16.6662 70.8935 16.7337C70.7201 16.8011 70.5189 16.8355 70.2886 16.8355L70.2873 16.838ZM30.7888 23.1327C30.3788 23.1327 30.0523 22.9825 29.8081 22.681C29.5651 22.3794 29.4424 21.9544 29.4424 21.406C29.4424 21.0523 29.5094 20.7469 29.6423 20.4886C29.7752 20.2303 29.9498 20.0293 30.1662 19.8867C30.3826 19.7442 30.6167 19.673 30.8697 19.673C31.0633 19.673 31.2304 19.7073 31.3696 19.7748C31.5088 19.8422 31.6543 19.9376 31.8023 20.0598L31.7821 19.4885V18.197H32.2693V23.0513H31.8631L31.8226 22.6504H31.8023C31.6758 22.7815 31.5265 22.8948 31.3531 22.9902C31.1798 23.0856 30.9912 23.1327 30.7888 23.1327ZM30.8976 22.7115C31.0558 22.7115 31.2063 22.6721 31.3506 22.5919C31.4949 22.513 31.6391 22.396 31.7834 22.242V20.4542C31.634 20.3232 31.4923 20.2303 31.3569 20.1756C31.2215 20.1209 31.0849 20.0941 30.9444 20.0941C30.7596 20.0941 30.5913 20.1501 30.4408 20.2608C30.2902 20.3715 30.17 20.5255 30.0827 20.7227C29.9941 20.92 29.951 21.1477 29.951 21.406C29.951 21.8094 30.0333 22.1275 30.1978 22.3616C30.3623 22.5945 30.5951 22.7115 30.8976 22.7115ZM33.4056 20.0471L33.2576 19.8091C33.4246 19.6959 33.5499 19.575 33.6334 19.4452C33.7169 19.3167 33.7587 19.1538 33.7587 18.9591L33.6714 18.524L33.9485 18.8573C33.908 18.8981 33.87 18.9273 33.8333 18.9451C33.7966 18.963 33.7523 18.9719 33.6979 18.9719C33.6119 18.9719 33.536 18.9439 33.4676 18.8866C33.3993 18.8294 33.3664 18.7517 33.3664 18.6525C33.3664 18.5392 33.398 18.4514 33.4613 18.3904C33.5246 18.3293 33.603 18.2988 33.6979 18.2988C33.8245 18.2988 33.9219 18.3484 33.9915 18.4489C34.0611 18.5481 34.0965 18.6919 34.0965 18.8777C34.0965 19.1411 34.0383 19.3676 33.9206 19.5572C33.803 19.748 33.6321 19.9109 33.4069 20.0471H33.4056ZM35.3063 19.0469C35.2114 19.0469 35.1316 19.0151 35.0658 18.9515C35 18.8879 34.9684 18.8039 34.9684 18.6996C34.9684 18.5952 35.0013 18.5189 35.0658 18.4578C35.1316 18.3967 35.2114 18.3662 35.3063 18.3662C35.4012 18.3662 35.486 18.3967 35.5492 18.4578C35.6125 18.5189 35.6441 18.599 35.6441 18.6996C35.6441 18.8001 35.6125 18.8879 35.5492 18.9515C35.486 19.0151 35.405 19.0469 35.3063 19.0469ZM35.0557 23.0513V19.7544H35.5429V23.0513H35.0557ZM36.6919 23.0513V19.7544H37.0981L37.1386 20.2443H37.1588C37.317 20.0814 37.4841 19.9453 37.6625 19.8358C37.8409 19.7264 38.0396 19.673 38.261 19.673C38.6077 19.673 38.8621 19.7811 39.0215 19.9987C39.181 20.2163 39.262 20.5357 39.262 20.9568V23.0513H38.7684V21.0179C38.7684 20.7011 38.7178 20.4695 38.6166 20.3245C38.5154 20.1794 38.3496 20.1069 38.1193 20.1069C37.9485 20.1069 37.7928 20.1514 37.6523 20.2392C37.5132 20.327 37.355 20.4606 37.1791 20.6375V23.0513H36.6919ZM41.2006 23.1327C40.9665 23.1327 40.7425 23.0882 40.5312 23.0004C40.3186 22.9126 40.1364 22.8044 39.9832 22.6772L40.2338 22.3438C40.378 22.457 40.5261 22.5525 40.6805 22.6288C40.8336 22.7064 41.0145 22.7446 41.2208 22.7446C41.4461 22.7446 41.6156 22.6899 41.7282 22.5817C41.8409 22.4723 41.8978 22.3438 41.8978 22.1936C41.8978 22.0753 41.8598 21.9773 41.7827 21.8984C41.7055 21.8196 41.6093 21.7508 41.4916 21.6949C41.3739 21.6389 41.255 21.588 41.1335 21.5422C40.9804 21.4874 40.8273 21.4226 40.6742 21.3449C40.521 21.2686 40.3932 21.1706 40.292 21.0523C40.1908 20.9339 40.1401 20.7825 40.1401 20.5968C40.1401 20.3385 40.2376 20.1196 40.4337 19.9402C40.6299 19.7608 40.9032 19.6717 41.255 19.6717C41.4536 19.6717 41.6384 19.7086 41.8092 19.7799C41.9801 19.8524 42.1268 19.9389 42.2483 20.0382L42.0117 20.3575C41.8991 20.2761 41.7827 20.2074 41.6637 20.1501C41.5448 20.0929 41.4081 20.0649 41.255 20.0649C41.0386 20.0649 40.8792 20.1158 40.7754 20.2176C40.6716 20.3194 40.6197 20.4364 40.6197 20.5675C40.6197 20.6769 40.6552 20.766 40.7248 20.836C40.7944 20.906 40.8855 20.9658 40.9981 21.0167C41.1107 21.0663 41.2297 21.1159 41.3562 21.1655C41.5182 21.2241 41.6776 21.2915 41.8333 21.3666C41.9889 21.4416 42.118 21.5396 42.2218 21.6618C42.3255 21.7839 42.3774 21.9519 42.3774 22.1644C42.3774 22.3362 42.3318 22.4965 42.242 22.6441C42.1522 22.7917 42.0193 22.9088 41.8434 22.9978C41.6675 23.0869 41.4536 23.1302 41.2006 23.1302V23.1327ZM43.4252 19.0469C43.3303 19.0469 43.2505 19.0151 43.1847 18.9515C43.1189 18.8879 43.0873 18.8039 43.0873 18.6996C43.0873 18.5952 43.1202 18.5189 43.1847 18.4578C43.2505 18.3967 43.3303 18.3662 43.4252 18.3662C43.5201 18.3662 43.6048 18.3967 43.6681 18.4578C43.7314 18.5189 43.763 18.599 43.763 18.6996C43.763 18.8001 43.7314 18.8879 43.6681 18.9515C43.6048 19.0151 43.5239 19.0469 43.4252 19.0469ZM43.1759 23.0513V19.7544H43.6631V23.0513H43.1759ZM46.1091 23.1327C45.8244 23.1327 45.565 23.064 45.3283 22.9253C45.0917 22.7866 44.9032 22.5894 44.764 22.3336C44.6235 22.0779 44.5539 21.7687 44.5539 21.406C44.5539 21.0434 44.6235 20.7393 44.764 20.481C44.9032 20.2227 45.0854 20.0229 45.3081 19.8829C45.5308 19.743 45.7687 19.6717 46.0218 19.6717C46.2926 19.6717 46.5242 19.7353 46.7178 19.8626C46.9114 19.9898 47.0594 20.1679 47.1607 20.3957C47.2619 20.6247 47.3125 20.8983 47.3125 21.2152C47.3125 21.2699 47.3125 21.3233 47.3087 21.3755C47.3062 21.4276 47.3011 21.4735 47.2923 21.5142H44.9399L44.9335 21.1541H46.8734C46.8734 20.8003 46.7988 20.5319 46.6507 20.3486C46.5014 20.1654 46.2938 20.0738 46.0281 20.0738C45.8661 20.0738 45.708 20.1209 45.5548 20.2163C45.4017 20.3117 45.2752 20.4568 45.1765 20.6515C45.0778 20.8461 45.0272 21.0981 45.0272 21.406C45.0272 21.7139 45.0791 21.9455 45.1828 22.1402C45.2866 22.3349 45.4245 22.4825 45.5991 22.5817C45.7725 22.681 45.9636 22.7306 46.1711 22.7306C46.3381 22.7306 46.4875 22.7052 46.6203 22.6555C46.7532 22.6059 46.881 22.5423 47.0025 22.4647L47.1847 22.7904C47.0455 22.8808 46.8886 22.9609 46.7152 23.0284C46.5419 23.0958 46.3394 23.1302 46.1104 23.1302L46.1091 23.1327ZM48.1376 23.0513V19.7544H48.5438L48.5842 20.2443H48.6045C48.7488 20.0852 48.9082 19.9504 49.0816 19.8397C49.2549 19.729 49.4371 19.673 49.6257 19.673C49.8826 19.673 50.0825 19.7302 50.2242 19.846C50.3659 19.9618 50.4684 20.117 50.5317 20.3117C50.7076 20.1209 50.8848 19.9669 51.0619 19.8498C51.2403 19.7315 51.4264 19.673 51.62 19.673C51.9578 19.673 52.2084 19.7811 52.3704 19.9987C52.5323 20.2163 52.6133 20.5357 52.6133 20.9568V23.0513H52.1198V21.0179C52.1198 20.7011 52.0679 20.4695 51.9642 20.3245C51.8604 20.1794 51.6984 20.1069 51.477 20.1069C51.3466 20.1069 51.21 20.1514 51.0683 20.2392C50.9265 20.327 50.7759 20.4606 50.619 20.6375V23.0513H50.1255V21.0179C50.1255 20.7011 50.0749 20.4695 49.9737 20.3245C49.8724 20.1794 49.7117 20.1069 49.4903 20.1069C49.2283 20.1069 48.9398 20.2837 48.6247 20.6375V23.0513H48.1376ZM55.0138 23.1327C54.7304 23.1327 54.4697 23.064 54.233 22.9253C53.9964 22.7866 53.8079 22.5894 53.6687 22.3336C53.5282 22.0779 53.4586 21.7687 53.4586 21.406C53.4586 21.0434 53.5282 20.7393 53.6687 20.481C53.8079 20.2227 53.9901 20.0229 54.2128 19.8829C54.4355 19.743 54.6734 19.6717 54.9265 19.6717C55.1973 19.6717 55.4289 19.7353 55.6225 19.8626C55.8161 19.9898 55.9641 20.1679 56.0654 20.3957C56.1666 20.6247 56.2172 20.8983 56.2172 21.2152C56.2172 21.2699 56.2172 21.3233 56.2134 21.3755C56.2109 21.4276 56.2058 21.4735 56.197 21.5142H53.8446L53.8382 21.1541H55.7781C55.7781 20.8003 55.7035 20.5319 55.5554 20.3486C55.4061 20.1654 55.1986 20.0738 54.9328 20.0738C54.7708 20.0738 54.6127 20.1209 54.4596 20.2163C54.3064 20.3117 54.1799 20.4568 54.0812 20.6515C53.9825 20.8461 53.9319 21.0981 53.9319 21.406C53.9319 21.7139 53.9838 21.9455 54.0875 22.1402C54.1913 22.3349 54.3292 22.4825 54.5038 22.5817C54.6772 22.681 54.8683 22.7306 55.0758 22.7306C55.2428 22.7306 55.3922 22.7052 55.525 22.6555C55.6579 22.6059 55.7857 22.5423 55.9072 22.4647L56.0894 22.7904C55.9502 22.8808 55.7933 22.9609 55.6199 23.0284C55.4466 23.0958 55.2441 23.1302 55.0151 23.1302L55.0138 23.1327Z" fill="#575756"></path>
</svg>
