<?xml version="1.0" encoding="UTF-8"?>
<svg xmlns="http://www.w3.org/2000/svg" width="25" height="25" viewBox="0 0 25 25" fill="none">
  <mask id="mask0_229_3898" style="mask-type:alpha" maskUnits="userSpaceOnUse" x="0" y="0" width="25" height="25">
    <rect x="0.197266" y="0.511719" width="24" height="24" fill="#D9D9D9"></rect>
  </mask>
  <g mask="url(#mask0_229_3898)">
    <path d="M11.1973 16.5117V8.36172L8.59727 10.9617L7.19727 9.51172L12.1973 4.51172L17.1973 9.51172L15.7973 10.9617L13.1973 8.36172V16.5117H11.1973ZM6.19727 20.5117C5.64727 20.5117 5.17643 20.3159 4.78477 19.9242C4.3931 19.5326 4.19727 19.0617 4.19727 18.5117V15.5117H6.19727V18.5117H18.1973V15.5117H20.1973V18.5117C20.1973 19.0617 20.0014 19.5326 19.6098 19.9242C19.2181 20.3159 18.7473 20.5117 18.1973 20.5117H6.19727Z" fill="#E1E1E1"></path>
  </g>
</svg>
