<?xml version="1.0" encoding="UTF-8"?>
<svg xmlns="http://www.w3.org/2000/svg" width="242" height="65" viewBox="0 0 242 65" fill="none">
  <path d="M32.16 2.14699C48.83 2.14699 62.34 15.657 62.34 32.327C62.34 48.997 48.83 62.507 32.16 62.507C15.49 62.507 1.98 48.997 1.98 32.327C1.98 15.657 15.49 2.14699 32.16 2.14699ZM32.16 0.166992C27.82 0.166992 23.61 1.01699 19.64 2.69699C15.81 4.31699 12.37 6.63699 9.42 9.58699C6.47 12.537 4.15 15.977 2.53 19.807C0.85 23.777 0 27.987 0 32.327C0 36.667 0.85 40.877 2.53 44.847C4.15 48.677 6.47 52.117 9.42 55.067C12.37 58.017 15.81 60.337 19.64 61.957C23.61 63.637 27.82 64.487 32.16 64.487C36.5 64.487 40.71 63.637 44.68 61.957C48.51 60.337 51.95 58.017 54.9 55.067C57.85 52.117 60.17 48.677 61.79 44.847C63.47 40.877 64.32 36.667 64.32 32.327C64.32 27.987 63.47 23.777 61.79 19.807C60.17 15.977 57.85 12.537 54.9 9.58699C51.95 6.63699 48.51 4.31699 44.68 2.69699C40.71 1.01699 36.5 0.166992 32.16 0.166992Z" fill="white"></path>
  <path d="M39.94 14.197C39.94 18.497 36.46 21.977 32.16 21.977C27.86 21.977 24.38 18.497 24.38 14.197C24.38 9.89699 27.86 6.41699 32.16 6.41699C36.46 6.41699 39.94 9.89699 39.94 14.197Z" fill="white"></path>
  <path d="M7.25 39.117H57.04C57.04 42.817 51.18 58.267 32.49 58.267C13.8 58.267 7.15 42.707 7.25 39.117Z" fill="white"></path>
  <path d="M7.25 25.507H57.04C57.04 25.507 58.6 29.007 58.01 35.037H6.47C6.47 35.037 5.89 29.787 7.25 25.507Z" fill="white"></path>
  <path d="M80.86 23.097H89.56L92.58 32.207L96.35 23.097H104.35V40.677H97.11L97.1 29.597L92.64 40.667H88.4L84.57 29.537V40.667H80.86V23.097Z" fill="white"></path>
  <path d="M112.75 32.797L115.28 27.797L117.24 32.767L112.75 32.797ZM120.54 23.097H114.02L105.72 40.677H108.92L111.08 36.037H118.56L120.36 40.677H127.16L120.54 23.097Z" fill="white"></path>
  <path d="M190.14 32.797L192.67 27.797L194.63 32.767L190.14 32.797ZM197.93 23.097H191.4L183.11 40.677H186.32L188.47 36.037H195.95L197.89 40.677H204.4L197.92 23.097H197.93Z" fill="white"></path>
  <path d="M132.73 23.097H143.29L143.26 26.197H135.99C135.99 26.197 135.66 26.297 135.66 26.947V36.467C135.66 36.467 135.55 37.447 136.31 37.447C137.07 37.447 143.55 37.467 143.55 37.467V40.657H132.61C132.61 40.657 129.23 40.497 129.23 37.007V26.607C129.23 26.607 129.5 23.077 132.71 23.077" fill="white"></path>
  <path d="M157.93 30.677C157.93 31.707 156.84 31.657 156.84 31.657H154.88C153.68 31.657 153.55 30.837 153.55 30.837V27.437C153.55 26.487 154.56 26.427 154.56 26.427H156.79C157.77 26.427 157.93 27.347 157.93 27.347V30.677ZM161.65 23.097H146.12L146.28 40.667H153.55L153.52 34.597H162.06C164.02 34.597 164.35 32.477 164.35 32.477V26.107C164.35 22.947 161.65 23.097 161.65 23.097Z" fill="white"></path>
  <path d="M166.69 23.107L166.91 40.667L181.18 40.677V37.877L174.42 37.867L174.34 23.107H166.69Z" fill="white"></path>
  <path d="M221.68 23.097V26.377L212.91 26.427C212.91 26.427 212.26 26.537 212.2 27.457C212.16 28.107 212.09 29.037 212.96 29.037H220.58C221.23 29.037 222.54 29.747 222.54 32.627V37.637C222.54 38.127 221.83 40.667 219.95 40.667H207.13V37.977L215.46 37.967C215.46 37.967 216.33 37.807 216.33 36.607C216.33 35.407 215.62 35.137 215.35 35.137C215.08 35.137 208.5 35.127 208.27 35.137C208.11 35.147 206.58 35.087 206.58 32.637V26.487C206.58 26.487 207.07 23.117 208.81 23.117C210.55 23.117 221.67 23.097 221.67 23.097" fill="white"></path>
  <path d="M225.53 23.097V26.427L229.78 26.437L229.76 40.677H236.37L236.36 26.267H241.09L241.1 23.097H225.53Z" fill="white"></path>
</svg>
