<?xml version="1.0" encoding="UTF-8"?>
<svg xmlns="http://www.w3.org/2000/svg" width="81" height="81" viewBox="0 0 81 81" fill="none">
  <path d="M40.7134 80.5C62.8048 80.5 80.7134 62.5914 80.7134 40.5C80.7134 18.4086 62.8048 0.5 40.7134 0.5C18.622 0.5 0.713379 18.4086 0.713379 40.5C0.713379 62.5914 18.622 80.5 40.7134 80.5Z" fill="#88CDF2"></path>
  <path d="M41.5712 15.2433C41.1523 14.6149 40.2246 14.6149 39.8156 15.2433C35.4366 21.8767 24.3643 39.4129 24.3643 46.8044C24.3643 50.7146 25.7608 54.3655 28.1348 57.2283C31.0675 60.9291 35.5862 63.3031 40.6735 63.3031C45.2121 63.3031 49.3019 61.4079 52.2146 58.3655C55.2271 55.373 57.0226 51.2533 57.0226 46.8044C57.0226 39.4029 45.9503 21.8767 41.5712 15.2433ZM47.8256 57.3281C47.4964 57.5874 47.0974 57.7071 46.7084 57.7071C46.1697 57.7071 45.6411 57.4677 45.282 57.0089C44.6635 56.2209 44.8032 55.0837 45.5912 54.4652C49.3518 51.5326 49.6012 47.2533 49.6111 47.0737C49.661 46.0762 50.5089 45.2882 51.4964 45.348C52.4939 45.3879 53.272 46.2258 53.2321 47.2233C53.2321 47.4727 52.9528 53.3281 47.8256 57.3281Z" fill="white"></path>
</svg>
