<?xml version="1.0" encoding="UTF-8"?>
<svg xmlns="http://www.w3.org/2000/svg" width="24" height="24" viewBox="0 0 24 24" fill="none">
  <mask id="mask0_417_2673" style="mask-type:alpha" maskUnits="userSpaceOnUse" x="-1" y="-1" width="25" height="25">
    <rect x="-0.802734" y="-0.488525" width="24" height="24" fill="#D9D9D9"></rect>
  </mask>
  <g mask="url(#mask0_417_2673)">
    <path d="M10.1973 15.5115V7.36147L7.59727 9.96147L6.19727 8.51147L11.1973 3.51147L16.1973 8.51147L14.7973 9.96147L12.1973 7.36147V15.5115H10.1973ZM5.19727 19.5115C4.64727 19.5115 4.17643 19.3156 3.78477 18.924C3.3931 18.5323 3.19727 18.0615 3.19727 17.5115V14.5115H5.19727V17.5115H17.1973V14.5115H19.1973V17.5115C19.1973 18.0615 19.0014 18.5323 18.6098 18.924C18.2181 19.3156 17.7473 19.5115 17.1973 19.5115H5.19727Z" fill="white"></path>
  </g>
</svg>
