<?xml version="1.0" encoding="UTF-8"?>
<svg xmlns="http://www.w3.org/2000/svg" width="16" height="16" viewBox="0 0 16 16" fill="none">
  <path d="M16.0006 15.3333C16.0006 15.7019 15.7019 15.9999 15.3339 15.9999H0.667282C0.299282 15.9999 0.000615502 15.7019 0.000615502 15.3333C0.000615502 14.9646 0.299282 14.6666 0.667282 14.6666H15.3339C15.7019 14.6666 16.0006 14.9646 16.0006 15.3333ZM0.415949 11.9726C2.75595 12.9253 5.29795 13.4079 7.97128 13.4086C7.97128 13.4086 7.97395 13.4086 7.97462 13.4086C10.6906 13.4086 13.2526 12.9173 15.5886 11.9493C15.9286 11.8079 16.0899 11.4179 15.9493 11.0779C15.8086 10.7379 15.4186 10.5759 15.0779 10.7173C12.9039 11.6186 10.5133 12.0753 7.97262 12.0753C5.47195 12.0753 3.09795 11.6253 0.917949 10.7379C0.575949 10.5973 0.187949 10.7626 0.0492822 11.1039C-0.0893845 11.4453 0.0746155 11.8339 0.415282 11.9726H0.415949ZM7.12328 7.30261C7.36595 7.54528 7.68395 7.66594 8.00262 7.66594C8.32128 7.66594 8.63928 7.54461 8.88195 7.30261L10.8073 5.37728C11.0679 5.11661 11.0679 4.69528 10.8073 4.43461C10.5466 4.17394 10.1253 4.17394 9.86462 4.43461L8.66862 5.63061L8.66728 0.667277C8.66728 0.299277 8.36862 0.000610352 8.00062 0.000610352C7.63262 0.000610352 7.33395 0.299277 7.33395 0.667277L7.33528 5.62928L6.14062 4.43461C5.87995 4.17394 5.45862 4.17394 5.19795 4.43461C4.93728 4.69528 4.93728 5.11661 5.19795 5.37728L7.12328 7.30261ZM7.99662 10.6666H7.99795C7.99795 10.6666 7.99928 10.6666 8.00062 10.6666H8.00195C12.0113 10.6646 14.8026 8.19061 15.8166 7.12661C16.0706 6.85994 16.0606 6.43794 15.7939 6.18394C15.5286 5.92994 15.1059 5.93994 14.8513 6.20661C13.9553 7.14661 11.4939 9.33261 7.99928 9.33328C4.51462 9.33328 2.04795 7.14594 1.14928 6.20594C0.894616 5.93994 0.472615 5.92994 0.206615 6.18461C-0.0593845 6.43861 -0.0693845 6.86128 0.185282 7.12728C1.20195 8.19128 3.99862 10.6646 7.99595 10.6666H7.99662Z" fill="#3C3C3B"></path>
</svg>
